<svg width="71" height="71" viewBox="0 0 71 71" fill="none" xmlns="http://www.w3.org/2000/svg">
<g clip-path="url(#clip0_9_117)">
<path d="M55.3395 35.4436C55.3395 20.2088 70.9433 19.8355 70.9433 19.8355V0H0.0546875V19.9032C8.58588 19.9666 15.4826 26.898 15.4826 35.4436C15.4826 43.9892 8.58588 50.9219 0.0546875 50.9853V70.8886H70.9433L70.9461 51.0502C62.327 51.0502 55.3395 44.0627 55.3395 35.4436Z" fill="#A800CB"/>
<mask id="mask0_9_117" style="mask-type:luminance" maskUnits="userSpaceOnUse" x="0" y="0" width="71" height="71">
<path d="M55.3376 35.4436C55.3376 20.2088 70.9413 19.8355 70.9413 19.8355V0H0.0527344V19.9032C8.58392 19.9666 15.4807 26.898 15.4807 35.4436C15.4807 43.9892 8.58392 50.9219 0.0527344 50.9853V70.8886H70.9413L70.9442 51.0502C62.3251 51.0502 55.3376 44.0627 55.3376 35.4436Z" fill="white"/>
</mask>
<g mask="url(#mask0_9_117)">
<path d="M88.4791 68.3553C87.6013 68.4101 87.2222 68.9002 87.0637 69.7505C86.8965 70.6442 86.7077 71.5882 86.2681 72.3622C85.5647 73.6017 84.3295 74.1451 82.9156 74.2431C80.0171 74.442 78.4864 76.0866 78.4835 79.0139C78.482 80.7594 78.4748 82.5048 78.4878 84.2502C78.4921 84.8614 78.374 85.3903 77.7859 85.7016C77.1805 86.0216 76.6963 85.7636 76.2177 85.3903C72.9229 82.8132 69.7923 80.0747 67.3204 76.6545C66.4427 75.4394 65.1729 74.9523 63.697 74.9321C59.6901 74.8759 55.6803 74.8586 51.6749 74.7375C48.3786 74.6381 45.0852 74.4392 41.7932 74.2316C39.49 74.086 37.9751 72.4934 37.7243 70.1916C37.0584 64.0833 36.8322 57.9591 36.9705 51.819C36.995 50.7078 37.0729 49.598 37.1377 48.2662C38.85 48.2662 40.5349 48.3195 42.214 48.2546C45.9456 48.112 49.6772 47.9318 53.4059 47.7257C56.721 47.5412 59.2375 44.9641 59.5085 41.5741C59.6526 39.7609 59.8299 37.9521 59.9956 36.0956C62.2931 36.0956 64.5257 36.0308 66.7526 36.1086C72.2282 36.2974 77.7023 36.5353 83.175 36.7904C85.0977 36.8797 86.774 38.4364 86.9844 40.3533C87.7108 46.9474 88.0034 53.5616 87.7368 60.1946C87.6806 61.584 87.5898 62.972 87.5278 64.36C87.4846 65.3199 87.7325 65.6572 88.6664 65.9671C88.6045 66.7641 88.5425 67.5612 88.482 68.3597L88.4791 68.3553Z" fill="url(#paint0_linear_9_117)"/>
<path d="M24.8044 53.5476C24.0924 53.0561 23.464 53.1541 22.8154 53.7234C21.8944 54.532 20.9532 55.3247 19.9544 56.031C19.6085 56.2745 18.9541 56.4461 18.6413 56.2774C18.2882 56.0857 17.9855 55.4833 17.9668 55.0465C17.8933 53.2492 17.9437 51.449 17.9336 49.6488C17.9192 47.1668 16.2603 45.4286 13.7884 45.2873C11.4578 45.1547 9.98619 43.8143 9.72819 41.5024C8.88934 34.0061 8.70485 26.4925 9.22949 18.9659C9.3693 16.9538 9.54658 14.9446 9.74837 12.9383C9.93718 11.0545 11.256 9.61605 13.1499 9.4085C15.234 9.17933 17.3341 9.08997 19.4297 8.98619C29.8145 8.47164 40.1978 8.55812 50.5767 9.15627C51.5554 9.21248 52.5398 9.2514 53.5098 9.38544C55.4873 9.65785 56.8205 11.0257 57.0295 13.0075C57.8741 20.9967 58.0529 29.0004 57.4259 37.0142C57.3106 38.4814 57.1794 39.9472 57.0483 41.4131C56.8465 43.6673 55.2956 45.2009 53.0486 45.2787C46.0755 45.5194 39.1009 45.7399 32.1263 45.9446C30.5769 45.9907 29.3388 46.5456 28.4121 47.8097C27.8644 48.5563 27.2806 49.2784 26.6709 49.9745C26.1002 50.6274 26.0195 51.2602 26.5773 51.9448C25.9863 52.4781 25.3954 53.0128 24.803 53.5461L24.8044 53.5476Z" fill="url(#paint1_linear_9_117)"/>
<path d="M89.4954 40.7428C89.1005 36.9362 86.6603 34.4716 82.8538 34.3058C76.6979 34.0377 70.5391 33.8287 64.3804 33.6169C62.9794 33.5693 61.5755 33.6097 60.1573 33.6097C60.1472 33.3848 60.1342 33.2782 60.1385 33.1715C60.372 26.4578 60.1904 19.7585 59.5202 13.0708C59.1873 9.74568 57.0166 7.28101 53.6771 6.95383C50.6676 6.65836 47.6379 6.56035 44.6141 6.42631C34.2481 5.96509 23.8907 6.1784 13.542 6.87744C9.95601 7.11959 7.64701 9.37093 7.27803 12.9195C7.00274 15.5758 6.8341 18.2437 6.61791 20.9058C6.61358 21.1797 6.6107 21.4521 6.60638 21.726C6.56458 22.3774 6.52422 23.0289 6.48242 23.6804V30.8812C6.52566 31.586 6.5689 32.2923 6.61214 32.9971C6.61214 33.2162 6.61502 33.4367 6.61646 33.6558C6.8341 36.3453 7.0085 39.0391 7.27803 41.7243C7.62971 45.2253 10.0655 47.5127 13.5737 47.7375C14.8824 47.8211 15.4734 48.4495 15.4777 49.7827C15.4835 51.583 15.4763 53.3832 15.4806 55.1834C15.4849 56.7141 16.1523 57.87 17.5359 58.533C18.8893 59.1816 20.1937 58.9813 21.367 58.0675C22.3989 57.2632 23.4108 56.433 24.4125 55.5913C24.9198 55.1646 27.7477 52.527 28.5649 51.557C28.8172 51.2745 29.0406 50.9531 29.2914 50.6836C31.3063 48.5158 32.2244 48.1094 34.3965 48.4193C34.4239 48.4236 34.4498 48.4279 34.4772 48.4322C34.5176 48.4711 34.5579 48.5101 34.5983 48.5475C34.5637 49.6083 34.519 50.6706 34.4945 51.7314C34.349 58.0891 34.6055 64.4295 35.2844 70.7525C35.5914 73.6165 37.8297 76.2195 40.6821 76.5178C44.2552 76.8911 47.8556 77.0526 51.4488 77.178C55.5076 77.3192 59.5707 77.325 63.6309 77.3783C64.353 77.3884 64.9713 77.5729 65.4109 78.184C67.9837 81.7643 71.2684 84.6195 74.7045 87.3234C75.9715 88.3208 77.3393 88.6379 78.8152 87.9273C80.3214 87.2024 80.9498 85.9124 80.9383 84.2693C80.9267 82.3883 80.9239 80.5074 80.9412 78.6265C80.9512 77.4979 81.6258 76.8018 82.7414 76.7052C86.8189 76.3564 89.0702 74.1584 89.5012 70.1083C89.6121 69.0662 89.4464 68.7823 88.4764 68.3513C87.5986 68.4061 87.2195 68.8961 87.061 69.7465C86.8938 70.6401 86.705 71.5842 86.2654 72.3582C85.562 73.5977 84.3268 74.1411 82.9129 74.2391C80.0144 74.438 78.4837 76.0826 78.4808 79.0099C78.4794 80.7553 78.4722 82.5008 78.4851 84.2462C78.4895 84.8573 78.3713 85.3863 77.7832 85.6976C77.1779 86.0176 76.6936 85.7596 76.215 85.3863C72.9202 82.8092 69.7896 80.0707 67.3178 76.6504C66.44 75.4354 65.1702 74.9482 63.6943 74.9281C59.6874 74.8718 55.6776 74.8546 51.6722 74.7335C48.3759 74.634 45.0825 74.4351 41.7905 74.2276C39.4873 74.082 37.9724 72.4893 37.7216 70.1875C37.0558 64.0792 36.8295 57.955 36.9678 51.815C36.9923 50.7037 37.0702 49.5939 37.135 48.2621C38.8488 48.2621 40.5322 48.3155 42.2114 48.2506C45.943 48.1079 49.6745 47.9278 53.4032 47.7216C56.7183 47.5372 59.2348 44.9601 59.5058 41.5701C59.6499 39.7569 59.8272 37.948 59.993 36.0916C62.2904 36.0916 64.523 36.0268 66.7499 36.1046C72.2255 36.2934 77.6996 36.5312 83.1723 36.7849C85.095 36.8743 86.7713 38.4309 86.9817 40.3478C87.7082 46.9419 88.0007 53.5561 87.7341 60.1891C87.6779 61.5785 87.5871 62.9665 87.5251 64.3545C87.4819 65.3144 87.7298 65.6517 88.6637 65.9616C89.6496 65.7757 89.9163 65.4802 89.9754 64.5145C90.0215 63.752 90.0791 62.991 90.1166 62.2286C90.4669 55.0508 90.2391 47.8903 89.4968 40.7428H89.4954ZM57.426 37.0155C57.3107 38.4828 57.1795 39.9486 57.0483 41.4144C56.8466 43.6686 55.2957 45.2037 53.0487 45.28C46.0756 45.5207 39.101 45.7413 32.1264 45.9459C30.577 45.9921 29.3389 46.547 28.4121 47.811C27.8644 48.5576 23.1383 53.5071 22.814 53.7233C21.893 54.5319 20.9519 55.3261 19.953 56.0309C19.6071 56.2745 18.9527 56.446 18.64 56.2773C18.2869 56.0856 17.9842 55.4832 17.9654 55.0465C17.8919 53.2491 17.9424 51.4489 17.9323 49.6487C17.9179 47.1667 16.2589 45.4285 13.787 45.2873C11.4564 45.1547 9.98484 43.8142 9.72684 41.5023C8.88799 34.006 8.7035 26.4924 9.22814 18.9658C9.36795 16.9552 9.54523 14.9445 9.74702 12.9382C9.93583 11.0544 11.2546 9.61596 13.1485 9.40841C15.2327 9.17924 17.3327 9.08987 19.4284 8.9861C29.8131 8.47155 40.1964 8.55803 50.5754 9.15618C51.554 9.21239 52.5384 9.2513 53.5085 9.3839C55.486 9.65631 56.8192 11.0241 57.0282 13.0059C57.8728 20.9952 58.0515 28.9989 57.4245 37.0126L57.426 37.0155Z" fill="#F8D9FF" stroke="#F8D9FF" stroke-width="2.16198" stroke-miterlimit="10"/>
<path d="M33.5471 39.437C28.9075 39.1501 25.591 37.1424 23.5847 33.1124C23.1321 32.2044 23.3022 31.4708 23.9781 31.1407C24.6671 30.8049 25.3301 31.1393 25.7784 32.0329C27.3667 35.1966 29.9539 36.9247 33.4721 36.9161C36.9904 36.9074 39.5545 35.1735 41.1645 32.0113C41.3778 31.5918 41.8938 31.1479 42.3377 31.06C43.2674 30.8784 43.8727 31.8988 43.4389 32.8573C41.937 36.1738 38.7431 39.4384 33.5456 39.4384L33.5471 39.437Z" fill="#F8D9FF" stroke="#F8D9FF" stroke-width="2.16198" stroke-miterlimit="10"/>
<path d="M29.2444 21.1898C29.2444 22.3198 29.0859 23.3965 28.5699 24.3189C27.9141 25.4907 26.9873 25.4792 26.3344 24.3117C25.448 22.7248 25.4364 19.6995 26.3099 18.1011C26.9887 16.8587 27.9357 16.8644 28.6088 18.1126C29.021 18.8765 29.243 19.9546 29.243 21.1898H29.2444Z" fill="#F8D9FF" stroke="#F8D9FF" stroke-width="1.64887" stroke-miterlimit="10"/>
<path d="M42.2333 20.9083C42.2117 22.0152 42.0719 23.1207 41.53 24.059C40.8814 25.1832 39.9705 25.1674 39.3276 24.0345C38.4182 22.4317 38.4109 19.3733 39.3103 17.7662C39.982 16.567 40.9203 16.5742 41.5775 17.795C42.0705 18.7088 42.2117 19.7667 42.2333 20.9097V20.9083Z" fill="#F8D9FF" stroke="#F8D9FF" stroke-width="1.64887" stroke-miterlimit="10"/>
</g>
</g>
<defs>
<linearGradient id="paint0_linear_9_117" x1="45.1587" y1="37.2487" x2="84.9925" y2="79.4031" gradientUnits="userSpaceOnUse">
<stop stop-color="#A800CB"/>
<stop offset="1" stop-color="#7600CB"/>
</linearGradient>
<linearGradient id="paint1_linear_9_117" x1="49.8056" y1="15.501" x2="3.20332" y2="48.9541" gradientUnits="userSpaceOnUse">
<stop stop-color="#A800CB"/>
<stop offset="1" stop-color="#7600CB"/>
</linearGradient>
<clipPath id="clip0_9_117">
<rect width="70.8915" height="70.8886" fill="white" transform="translate(0.0546875)"/>
</clipPath>
</defs>
</svg>
