<svg width="37" height="37" viewBox="0 0 37 37" fill="none" xmlns="http://www.w3.org/2000/svg">
<g clip-path="url(#clip0_16_1799)">
<path d="M28.8545 18.4996C28.8545 10.5479 36.9985 10.353 36.9985 10.353V0H0V10.3884C4.45264 10.4215 8.05221 14.0393 8.05221 18.4996C8.05221 22.96 4.45264 26.5785 0 26.6116V37H36.9985L37 26.6454C32.5015 26.6454 28.8545 22.9983 28.8545 18.4996Z" fill="#A800CB"/>
<mask id="mask0_16_1799" style="mask-type:luminance" maskUnits="userSpaceOnUse" x="0" y="0" width="37" height="37">
<path d="M28.8545 18.4996C28.8545 10.5479 36.9985 10.353 36.9985 10.353V0H0V10.3884C4.45264 10.4215 8.05221 14.0393 8.05221 18.4996C8.05221 22.96 4.45264 26.5785 0 26.6116V37H36.9985L37 26.6454C32.5015 26.6454 28.8545 22.9983 28.8545 18.4996Z" fill="white"/>
</mask>
<g mask="url(#mask0_16_1799)">
<path d="M46.1519 35.6782C45.6938 35.7068 45.496 35.9625 45.4132 36.4064C45.3259 36.8728 45.2274 37.3656 44.998 37.7696C44.6308 38.4165 43.9862 38.7001 43.2482 38.7513C41.7354 38.8551 40.9365 39.7135 40.935 41.2414C40.9342 42.1524 40.9305 43.0634 40.9372 43.9745C40.9395 44.2934 40.8778 44.5695 40.5709 44.732C40.2549 44.899 40.0022 44.7644 39.7524 44.5695C38.0328 43.2244 36.3988 41.7951 35.1087 40.0099C34.6506 39.3757 33.9878 39.1214 33.2175 39.1109C31.1262 39.0816 29.0335 39.0725 26.9429 39.0093C25.2225 38.9574 23.5036 38.8536 21.7854 38.7453C20.5833 38.6693 19.7927 37.838 19.6618 36.6366C19.3142 33.4484 19.1961 30.2519 19.2683 27.0471C19.2811 26.4671 19.3217 25.8878 19.3556 25.1927C20.2493 25.1927 21.1287 25.2206 22.0051 25.1867C23.9527 25.1122 25.9003 25.0182 27.8464 24.9106C29.5766 24.8143 30.89 23.4692 31.0315 21.6998C31.1067 20.7535 31.1992 19.8093 31.2857 18.8404C32.4848 18.8404 33.6501 18.8065 34.8123 18.8471C37.6702 18.9457 40.5273 19.0698 43.3836 19.203C44.3871 19.2496 45.262 20.0621 45.3718 21.0626C45.751 24.5044 45.9037 27.9567 45.7645 31.4187C45.7352 32.1439 45.6878 32.8684 45.6554 33.5928C45.6329 34.0939 45.7623 34.2699 46.2497 34.4316C46.2174 34.8477 46.185 35.2637 46.1534 35.6804L46.1519 35.6782Z" fill="url(#paint0_linear_16_1799)"/>
<path d="M12.9191 27.9486C12.5475 27.6921 12.2195 27.7432 11.881 28.0404C11.4003 28.4624 10.909 28.8762 10.3877 29.2448C10.2072 29.3719 9.86565 29.4614 9.70241 29.3734C9.5181 29.2734 9.36013 28.9589 9.35035 28.731C9.31198 27.7929 9.33831 26.8532 9.33305 25.9136C9.32552 24.6182 8.45967 23.7109 7.16954 23.6372C5.95313 23.568 5.18507 22.8684 5.05042 21.6617C4.6126 17.749 4.51631 13.8273 4.79014 9.89883C4.86311 8.84863 4.95563 7.79994 5.06095 6.75275C5.1595 5.7695 5.84782 5.01871 6.83629 4.91038C7.92406 4.79077 9.02011 4.74413 10.1139 4.68996C15.5339 4.42139 20.9532 4.46653 26.3703 4.77873C26.8811 4.80807 27.3949 4.82838 27.9011 4.89835C28.9332 5.04053 29.6291 5.75445 29.7382 6.78886C30.179 10.9588 30.2723 15.1363 29.945 19.319C29.8848 20.0849 29.8164 20.85 29.7479 21.615C29.6426 22.7916 28.8332 23.5921 27.6604 23.6327C24.021 23.7583 20.3808 23.8734 16.7406 23.9802C15.9319 24.0043 15.2857 24.2939 14.802 24.9537C14.5161 25.3434 14.2115 25.7203 13.8933 26.0837C13.5954 26.4244 13.5532 26.7547 13.8444 27.112C13.5359 27.3904 13.2275 27.6695 12.9183 27.9478L12.9191 27.9486Z" fill="url(#paint1_linear_16_1799)"/>
<path d="M46.682 21.2656C46.4759 19.2788 45.2023 17.9924 43.2156 17.9059C40.0027 17.7659 36.7882 17.6568 33.5738 17.5463C32.8426 17.5214 32.1099 17.5425 31.3697 17.5425C31.3644 17.4251 31.3577 17.3695 31.3599 17.3138C31.4818 13.8096 31.387 10.313 31.0372 6.82234C30.8634 5.0868 29.7305 3.80038 27.9875 3.62961C26.4168 3.47539 24.8356 3.42423 23.2573 3.35427C17.847 3.11353 12.4413 3.22487 7.04005 3.58973C5.16842 3.71612 3.9633 4.8912 3.77072 6.74334C3.62704 8.12982 3.53902 9.52231 3.42618 10.9118C3.42392 11.0547 3.42242 11.1969 3.42016 11.3399C3.39835 11.6799 3.37728 12.0199 3.35547 12.36V16.1184C3.37804 16.4863 3.4006 16.8549 3.42317 17.2228C3.42317 17.3371 3.42468 17.4522 3.42543 17.5666C3.53902 18.9704 3.63004 20.3764 3.77072 21.7779C3.95427 23.6052 5.22559 24.7991 7.0566 24.9165C7.73965 24.9601 8.04808 25.2881 8.05033 25.984C8.05334 26.9236 8.04958 27.8632 8.05184 28.8028C8.0541 29.6017 8.40239 30.2051 9.12457 30.5511C9.83094 30.8897 10.5117 30.7851 11.1241 30.3082C11.6627 29.8884 12.1908 29.4551 12.7136 29.0157C12.9784 28.793 14.4543 27.4163 14.8809 26.91C15.0125 26.7626 15.1291 26.5948 15.26 26.4542C16.3117 25.3227 16.7909 25.1106 17.9245 25.2723C17.9388 25.2746 17.9524 25.2768 17.9667 25.2791C17.9877 25.2994 18.0088 25.3197 18.0298 25.3393C18.0118 25.8929 17.9885 26.4474 17.9757 27.0011C17.8997 30.3194 18.0336 33.6288 18.3879 36.9291C18.5482 38.4239 19.7164 39.7825 21.2051 39.9382C23.07 40.1331 24.9491 40.2173 26.8245 40.2828C28.9429 40.3565 31.0635 40.3595 33.1827 40.3874C33.5595 40.3926 33.8823 40.4889 34.1117 40.8079C35.4545 42.6766 37.1689 44.1669 38.9623 45.5782C39.6235 46.0988 40.3374 46.2643 41.1077 45.8934C41.8938 45.515 42.2218 44.8417 42.2158 43.9841C42.2098 43.0023 42.2083 42.0206 42.2173 41.0389C42.2226 40.4498 42.5746 40.0864 43.1569 40.036C45.285 39.854 46.4601 38.7067 46.685 36.5928C46.7429 36.0489 46.6564 35.9007 46.1501 35.6758C45.692 35.7043 45.4942 35.9601 45.4114 36.404C45.3242 36.8704 45.2256 37.3632 44.9962 37.7671C44.6291 38.4141 43.9844 38.6977 43.2464 38.7489C41.7336 38.8527 40.9347 39.7111 40.9332 41.239C40.9325 42.15 40.9287 43.061 40.9355 43.972C40.9377 44.291 40.876 44.5671 40.5691 44.7296C40.2532 44.8966 40.0004 44.7619 39.7507 44.5671C38.031 43.222 36.3971 41.7926 35.1069 40.0075C34.6488 39.3733 33.9861 39.119 33.2158 39.1085C31.1245 39.0791 29.0317 39.0701 26.9411 39.0069C25.2207 38.955 23.5018 38.8512 21.7836 38.7429C20.5815 38.6669 19.7909 37.8356 19.66 36.6342C19.3124 33.446 19.1943 30.2495 19.2666 27.0447C19.2793 26.4647 19.32 25.8854 19.3538 25.1903C20.2483 25.1903 21.1269 25.2181 22.0033 25.1843C23.9509 25.1098 25.8985 25.0158 27.8446 24.9082C29.5748 24.8119 30.8883 23.4668 31.0297 21.6974C31.1049 20.751 31.1974 19.8069 31.2839 18.8379C32.483 18.8379 33.6483 18.8041 34.8105 18.8447C37.6684 18.9433 40.5255 19.0674 43.3818 19.1998C44.3853 19.2464 45.2602 20.0589 45.37 21.0595C45.7492 24.5012 45.9019 27.9535 45.7627 31.4155C45.7334 32.1407 45.686 32.8652 45.6537 33.5897C45.6311 34.0907 45.7605 34.2667 46.2479 34.4285C46.7625 34.3314 46.9017 34.1772 46.9325 33.6732C46.9566 33.2752 46.9867 32.878 47.0062 32.48C47.189 28.7336 47.0702 24.9962 46.6827 21.2656H46.682ZM29.9442 19.3202C29.884 20.086 29.8155 20.8511 29.7471 21.6162C29.6418 22.7927 28.8323 23.5939 27.6595 23.6338C24.0201 23.7594 20.3799 23.8745 16.7397 23.9814C15.931 24.0054 15.2848 24.2951 14.8011 24.9548C14.5153 25.3445 12.0486 27.9279 11.8793 28.0407C11.3987 28.4628 10.9074 28.8773 10.3861 29.2452C10.2056 29.3723 9.86404 29.4618 9.7008 29.3738C9.51649 29.2738 9.35852 28.9593 9.34874 28.7313C9.31037 27.7932 9.3367 26.8536 9.33144 25.914C9.32391 24.6186 8.45806 23.7113 7.16793 23.6376C5.95152 23.5684 5.18347 22.8687 5.04881 21.6621C4.61099 17.7494 4.5147 13.8277 4.78853 9.89921C4.8615 8.84976 4.95403 7.80031 5.05934 6.75312C5.15789 5.76988 5.84621 5.01909 6.83468 4.91076C7.92245 4.79115 9.0185 4.7445 10.1123 4.69034C15.5323 4.42177 20.9516 4.46691 26.3687 4.77911C26.8794 4.80845 27.3932 4.82876 27.8995 4.89797C28.9316 5.04015 29.6275 5.75408 29.7365 6.78848C30.1774 10.9584 30.2706 15.1359 29.9434 19.3187L29.9442 19.3202Z" fill="#F8D9FF" stroke="#F8D9FF" stroke-width="2.16198" stroke-miterlimit="10"/>
<path d="M17.4819 20.5845C15.0603 20.4348 13.3294 19.3869 12.2822 17.2835C12.046 16.8095 12.1348 16.4266 12.4876 16.2543C12.8472 16.079 13.1932 16.2536 13.4272 16.72C14.2562 18.3713 15.6065 19.2733 17.4428 19.2687C19.279 19.2642 20.6173 18.3592 21.4576 16.7087C21.5689 16.4898 21.8382 16.2581 22.0699 16.2122C22.5551 16.1174 22.8711 16.65 22.6446 17.1503C21.8608 18.8813 20.1938 20.5853 17.4811 20.5853L17.4819 20.5845Z" fill="#F8D9FF" stroke="#F8D9FF" stroke-width="2.16198" stroke-miterlimit="10"/>
<path d="M15.2349 11.0595C15.2349 11.6493 15.1522 12.2113 14.8829 12.6928C14.5406 13.3044 14.0569 13.2984 13.7161 12.689C13.2535 11.8607 13.2474 10.2817 13.7033 9.44737C14.0576 8.7989 14.5519 8.80191 14.9032 9.45339C15.1183 9.85211 15.2342 10.4148 15.2342 11.0595H15.2349Z" fill="#F8D9FF" stroke="#F8D9FF" stroke-width="1.64887" stroke-miterlimit="10"/>
<path d="M22.0157 10.9138C22.0045 11.4915 21.9315 12.0685 21.6486 12.5583C21.3101 13.1451 20.8347 13.1368 20.4992 12.5455C20.0245 11.709 20.0207 10.1126 20.4902 9.27378C20.8407 8.64788 21.3304 8.65164 21.6735 9.28883C21.9307 9.76578 22.0045 10.318 22.0157 10.9145V10.9138Z" fill="#F8D9FF" stroke="#F8D9FF" stroke-width="1.64887" stroke-miterlimit="10"/>
</g>
</g>
<defs>
<linearGradient id="paint0_linear_16_1799" x1="23.5419" y1="19.4422" x2="44.3331" y2="41.4437" gradientUnits="userSpaceOnUse">
<stop stop-color="#A800CB"/>
<stop offset="1" stop-color="#7600CB"/>
</linearGradient>
<linearGradient id="paint1_linear_16_1799" x1="25.9678" y1="8.09032" x2="1.64426" y2="25.5501" gradientUnits="userSpaceOnUse">
<stop stop-color="#A800CB"/>
<stop offset="1" stop-color="#7600CB"/>
</linearGradient>
<clipPath id="clip0_16_1799">
<rect width="37" height="37" fill="white"/>
</clipPath>
</defs>
</svg>
