<svg width="45" height="37" viewBox="0 0 45 37" fill="none" xmlns="http://www.w3.org/2000/svg">
<g clip-path="url(#clip0_16_1780)">
<path d="M8.12013 10.353V0H45V37H8.12013V26.647C3.63527 26.647 0 22.9991 0 18.4996C0 14.0002 3.63527 10.353 8.12013 10.353Z" fill="#FF9703"/>
<mask id="mask0_16_1780" style="mask-type:luminance" maskUnits="userSpaceOnUse" x="0" y="0" width="45" height="37">
<path d="M8.12013 10.353V0H45V37H8.12013V26.647C3.63527 26.647 0 22.9991 0 18.4996C0 14.0002 3.63527 10.353 8.12013 10.353Z" fill="white"/>
</mask>
<g mask="url(#mask0_16_1780)">
<path d="M20.6366 17.8105V40.6983H20.6254V34.0029L16.1953 40.6983H11.7539V19.1383C11.7539 18.4049 12.3463 17.8105 13.0774 17.8105H20.6366Z" fill="#FFCA28"/>
<path d="M29.5077 11.4619V20.5782L20.6362 33.9863V40.6983H20.625V12.7897C20.625 12.0562 21.2174 11.4619 21.9485 11.4619H29.5077Z" fill="#FFB300"/>
<path d="M39.747 5.10254L29.5078 20.5772V6.43034C29.5078 5.69685 30.1002 5.10254 30.8313 5.10254H39.747Z" fill="#FF6F00"/>
<path d="M29.5082 20.5781V40.6982H20.6367V33.9862L29.5082 20.5781Z" fill="#FFA000"/>
<path d="M20.6254 34.0029V40.6983H16.1953L20.6254 34.0029Z" fill="#FFB300"/>
<path d="M20.6362 33.9863V40.6983H20.625V34.0029L20.6362 33.9863Z" fill="#FF6F00"/>
<path d="M47.2508 6.43034V40.698H29.5078V20.5772L39.747 5.10254H45.9273C46.6584 5.10254 47.2508 5.69685 47.2508 6.43034Z" fill="#FF4800"/>
<path d="M20.6367 25.1717C22.2736 24.8001 23.849 24.2412 25.3922 23.5859C26.6512 23.0518 27.8787 22.4567 29.0417 21.7323C29.0852 21.7052 29.1392 21.6969 29.1887 21.6803C29.2952 21.6089 29.4024 21.5367 29.5089 21.4652C29.5929 21.4291 29.6844 21.405 29.7608 21.3561C31.4285 20.2916 33.0204 19.1226 34.4609 17.7639C35.3345 16.9402 36.1451 16.0487 36.9721 15.176C37.2061 14.9293 37.3958 14.6396 37.6058 14.3703C37.617 14.3545 37.6283 14.3387 37.6395 14.3222C37.623 14.332 37.6073 14.3425 37.5908 14.3523C37.1461 14.4523 36.6992 14.5403 36.2575 14.6539C35.243 14.9142 34.4549 14.2342 34.5666 13.2945C34.5771 13.2035 34.6296 12.8048 34.9783 12.4723C35.327 12.1398 35.8001 12.0683 36.238 11.9825C36.481 11.9352 36.7224 11.875 36.9624 11.8133C38.1007 11.5176 39.2359 11.2114 40.3765 10.9248C40.9284 10.7856 41.4465 10.83 41.8589 11.2987C42.0599 11.5274 42.1784 11.7862 42.1791 12.0856C42.1836 13.8204 42.1896 15.5559 42.1776 17.2907C42.1731 17.9693 41.5987 18.5042 40.9216 18.5064C40.2265 18.5094 39.6641 17.9655 39.6484 17.2659C39.6394 16.8702 39.6469 16.4745 39.6469 15.9893C39.2959 16.391 39.0087 16.7461 38.6946 17.0756C37.9664 17.8384 37.2376 18.6012 36.4855 19.3407C35.9973 19.8207 35.4747 20.2668 34.9551 20.7137C33.8355 21.6758 32.641 22.5387 31.3925 23.3234C30.7694 23.7145 30.135 24.0877 29.5051 24.4683C29.3649 24.5383 29.2262 24.6105 29.0845 24.6782C28.3294 25.0363 26.2268 26.0557 26.1788 26.0737C25.2767 26.413 24.3799 26.7666 23.4726 27.0908C23.0212 27.2526 22.5518 27.3662 22.0891 27.4948C21.6055 27.6295 21.1188 27.7574 20.6344 27.8883C20.0195 27.9981 19.4062 28.1207 18.7883 28.214C17.8735 28.3524 16.9586 28.5051 16.0386 28.5879C15.2018 28.6639 14.3574 28.6616 13.5161 28.6812C12.9357 28.6947 12.3546 28.6872 11.7734 28.6887C11.7734 27.8349 11.7734 26.9818 11.7734 26.1279C12.944 26.1031 14.1145 26.0775 15.2857 26.0527C15.3255 26.0519 15.3652 26.0504 15.4042 26.0459C15.8579 25.9963 16.3123 25.9504 16.7652 25.8947C17.2571 25.8345 17.7497 25.7788 18.2379 25.6968C18.6998 25.6201 19.1572 25.5163 19.6146 25.4162C19.9566 25.341 20.2962 25.253 20.6367 25.171V25.1717Z" fill="#FFE082"/>
</g>
</g>
<defs>
<clipPath id="clip0_16_1780">
<rect width="45" height="37" fill="white"/>
</clipPath>
</defs>
</svg>
