<svg width="87" height="71" viewBox="0 0 87 71" fill="none" xmlns="http://www.w3.org/2000/svg">
<g clip-path="url(#clip0_9_130)">
<path d="M15.86 19.8355V0H86.7486V70.8886H15.86V51.0531C7.23949 51.0531 0.251953 44.0641 0.251953 35.4436C0.251953 26.823 7.23949 19.8355 15.86 19.8355Z" fill="#FF9703"/>
<mask id="mask0_9_130" style="mask-type:luminance" maskUnits="userSpaceOnUse" x="0" y="0" width="87" height="71">
<path d="M15.86 19.8355V0H86.7486V70.8886H15.86V51.0531C7.23949 51.0531 0.251953 44.0641 0.251953 35.4436C0.251953 26.823 7.23949 19.8355 15.86 19.8355Z" fill="white"/>
</mask>
<g mask="url(#mask0_9_130)">
<path d="M39.9196 34.123V77.9738H39.898V65.1461L31.3827 77.9738H22.8457V36.667C22.8457 35.2617 23.9843 34.123 25.3896 34.123H39.9196Z" fill="#FFCA28"/>
<path d="M56.9723 21.96V39.4259L39.9201 65.1146V77.9741H39.8984V24.5039C39.8984 23.0986 41.0371 21.96 42.4424 21.96H56.9723Z" fill="#FFB300"/>
<path d="M76.6539 9.77637L56.9727 39.4244V12.3203C56.9727 10.915 58.1113 9.77637 59.5166 9.77637H76.6539Z" fill="#FF6F00"/>
<path d="M56.9722 39.4258V77.974H39.9199V65.1145L56.9722 39.4258Z" fill="#FFA000"/>
<path d="M39.8981 65.1465V77.9743H31.3828L39.8981 65.1465Z" fill="#FFB300"/>
<path d="M39.9201 65.1143V77.9737H39.8984V65.146L39.9201 65.1143Z" fill="#FF6F00"/>
<path d="M91.0772 12.3203V77.974H56.9727V39.4244L76.6539 9.77637H88.5333C89.9386 9.77637 91.0772 10.915 91.0772 12.3203Z" fill="#FF4800"/>
<path d="M56.9721 39.4248V77.9744H56.9707V39.4262L56.9721 39.4248Z" fill="#FF6F00"/>
<path d="M39.9173 48.2284C43.0637 47.5164 46.0919 46.4455 49.0582 45.1901C51.4781 44.1668 53.8376 43.0267 56.0731 41.6387C56.1567 41.5868 56.2604 41.571 56.3556 41.5393C56.5602 41.4023 56.7664 41.264 56.971 41.1271C57.1325 41.0579 57.3083 41.0118 57.4553 40.9181C60.6608 38.8786 63.7207 36.6388 66.4895 34.0357C68.1687 32.4575 69.7267 30.7495 71.3165 29.0776C71.7662 28.6048 72.1309 28.0499 72.5344 27.5339C72.556 27.5037 72.5777 27.4734 72.5993 27.4417C72.5676 27.4604 72.5373 27.4806 72.5056 27.4993C71.6509 27.691 70.7919 27.8597 69.9429 28.0773C67.9928 28.576 66.478 27.2731 66.6927 25.4728C66.7129 25.2984 66.8138 24.5345 67.484 23.8975C68.1543 23.2604 69.0637 23.1235 69.9055 22.9592C70.3724 22.8684 70.8365 22.7531 71.2978 22.6349C73.4857 22.0684 75.6679 21.4818 77.8601 20.9327C78.9209 20.666 79.9169 20.7511 80.7096 21.649C81.0959 22.0872 81.3236 22.583 81.3251 23.1566C81.3337 26.4803 81.3452 29.8055 81.3222 33.1292C81.3135 34.4292 80.2095 35.454 78.908 35.4583C77.5718 35.4641 76.4909 34.422 76.4606 33.0816C76.4433 32.3235 76.4577 31.5653 76.4577 30.6357C75.7832 31.4053 75.2311 32.0856 74.6272 32.7169C73.2277 34.1784 71.8267 35.6399 70.3811 37.0568C69.4428 37.9763 68.4382 38.831 67.4394 39.6872C65.2875 41.5306 62.9914 43.1838 60.5916 44.6871C59.3939 45.4366 58.1745 46.1515 56.9638 46.8808C56.6943 47.0149 56.4276 47.1532 56.1552 47.2829C54.7038 47.969 50.6624 49.922 50.5701 49.9566C48.8362 50.6066 47.1124 51.2841 45.3684 51.9053C44.5007 52.2151 43.5984 52.4328 42.7091 52.6793C41.7795 52.9373 40.8441 53.1823 39.913 53.4331C38.7311 53.6435 37.5521 53.8784 36.3644 54.0572C34.606 54.3224 32.8476 54.615 31.0791 54.7735C29.4706 54.9191 27.8477 54.9147 26.2305 54.9522C25.1149 54.9782 23.9979 54.9637 22.8809 54.9666C22.8809 53.3307 22.8809 51.6963 22.8809 50.0604C25.1308 50.0128 27.3807 49.9638 29.632 49.9162C29.7084 49.9148 29.7848 49.9119 29.8597 49.9033C30.7317 49.8081 31.6052 49.7202 32.4757 49.6136C33.4213 49.4983 34.3682 49.3916 35.3065 49.2345C36.1944 49.0875 37.0736 48.8886 37.9528 48.6969C38.61 48.5527 39.2629 48.3841 39.9173 48.227V48.2284Z" fill="#FFE082"/>
</g>
</g>
<defs>
<clipPath id="clip0_9_130">
<rect width="86.4967" height="70.8886" fill="white" transform="translate(0.251953)"/>
</clipPath>
</defs>
</svg>
