<svg width="54" height="37" viewBox="0 0 54 37" fill="none" xmlns="http://www.w3.org/2000/svg">
<g clip-path="url(#clip0_16_1766)">
<path d="M45.3946 10.3869V0H8.19133V10.353C3.66715 10.353 0 14.0009 0 18.4996C0 22.9983 3.66715 26.6462 8.19133 26.6462V36.9992H45.3946V26.6123C49.8999 26.6123 53.5519 22.9803 53.5519 18.4996C53.5519 14.019 49.8999 10.3869 45.3946 10.3869Z" fill="#5196FB"/>
<mask id="mask0_16_1766" style="mask-type:luminance" maskUnits="userSpaceOnUse" x="-1" y="0" width="55" height="37">
<path d="M45.3926 10.3869V0H8.18937V10.353C3.6652 10.353 -0.00195312 14.0009 -0.00195312 18.4996C-0.00195312 22.9983 3.6652 26.6462 8.18937 26.6462V36.9992H45.3926V26.6123C49.8979 26.6123 53.5499 22.9803 53.5499 18.4996C53.5499 14.019 49.8979 10.3869 45.3926 10.3869Z" fill="white"/>
</mask>
<g mask="url(#mask0_16_1766)">
<path d="M11.998 36.1677C11.3157 36.5085 10.4897 36.8892 9.69617 37.3285C9.17272 37.6181 8.64928 37.6731 8.08044 37.5677C6.67954 37.3089 5.47002 36.6958 4.44431 35.7035C3.42616 34.7188 2.55098 33.6483 2.17655 32.2535C2.06157 31.8255 1.96853 31.3839 1.93676 30.943C1.91558 30.6512 1.95945 30.3209 2.08124 30.0568C5.60618 22.388 9.13187 14.7199 12.9942 7.21047C13.504 6.2197 14.0464 5.24398 14.619 4.28857C15.5048 2.81031 16.9041 2.15281 18.5713 2.05501C20.6106 1.93465 22.5183 2.50564 24.2982 3.42719C29.4631 6.10235 33.2966 10.0684 35.7278 15.3458C36.3677 16.7345 36.7618 18.2015 36.839 19.7324C36.9108 21.1542 36.6892 22.5294 35.7701 23.6751C35.4131 24.1205 34.9464 24.5313 34.4441 24.8028C31.7301 26.2706 28.9964 27.7052 26.2536 29.1195C25.0501 29.7401 23.8103 30.2923 22.5796 30.8595C22.3534 30.9634 22.3027 31.086 22.3481 31.3109C22.5312 32.2107 22.6938 33.1142 22.8829 34.0124C23.0289 34.7068 22.8209 35.2289 22.2256 35.6306C20.4994 36.7944 18.7846 37.9755 17.0622 39.1445C16.2513 39.6945 15.6719 39.6155 14.9707 38.9422C14.0138 38.0236 13.032 37.1306 11.9972 36.1677H11.998ZM14.2589 11.0253C14.1568 11.2224 14.0789 11.3631 14.0093 11.5076C12.4359 14.7695 10.8664 18.0337 9.29072 21.2949C7.78846 24.4056 6.27864 27.5133 4.78092 30.6263C4.70301 30.7888 4.62585 31.01 4.67426 31.1657C5.21889 32.9208 6.34369 34.1614 8.0812 34.8091C8.29603 34.8888 8.61524 34.8595 8.82477 34.7572C10.5192 33.9289 12.1984 33.069 13.8837 32.2227C18.4805 29.9147 23.0788 27.6081 27.6756 25.3001C27.805 25.2354 27.9275 25.1579 28.0924 25.0639C21.4767 22.3127 16.945 17.6162 14.2589 11.0253ZM26.5387 21.4025C28.0365 22.2496 29.5977 22.798 31.2777 22.9424C33.0962 23.0981 34.1711 22.0833 34.1892 20.259C34.2074 18.4791 33.5826 16.8729 32.7694 15.3367C31.1242 12.2275 28.8194 9.67197 25.9918 7.58662C24.1227 6.20767 22.1174 5.10556 19.7634 4.75048C17.6606 4.43301 16.3504 5.50653 16.3694 7.61822C16.3845 9.3184 17.0146 10.8463 17.7634 12.3381C17.8928 12.5954 18.0426 12.4848 18.2105 12.4141C21.9737 10.8282 26.2573 13.1077 27.047 17.0888C27.3428 18.5784 27.1651 19.9904 26.5387 21.4032V21.4025ZM19.3716 14.9027C20.7627 16.7872 22.361 18.4542 24.2558 19.8776C24.8655 18.3895 24.3897 16.5946 23.153 15.5158C22.1227 14.6175 20.3845 14.3242 19.3716 14.9027ZM19.8111 32.24C18.0721 33.1134 16.4094 33.9492 14.6931 34.8113C15.2756 35.3545 15.8088 35.8525 16.361 36.3686C17.501 35.5945 18.6916 34.791 19.8739 33.9763C19.9692 33.9101 20.0773 33.7566 20.0645 33.6581C20.007 33.2067 19.9087 32.7606 19.8111 32.24Z" fill="#EBF5FF"/>
<path d="M14.2599 11.0254C16.9459 17.6162 21.4777 22.3128 28.0934 25.0639C27.9285 25.158 27.8052 25.2354 27.6766 25.3001C23.0798 27.6082 18.4815 29.9147 13.8847 32.2227C12.1986 33.0691 10.5201 33.9289 8.82572 34.7572C8.61618 34.8595 8.29697 34.8896 8.08215 34.8091C6.34464 34.1614 5.21984 32.9209 4.67521 31.1658C4.6268 31.0108 4.70395 30.7889 4.78187 30.6264C6.28034 27.5134 7.78941 24.4057 9.29167 21.2949C10.8665 18.0337 12.4369 14.7696 14.0103 11.5076C14.0798 11.3632 14.1578 11.2217 14.2599 11.0254Z" fill="url(#paint0_linear_16_1766)"/>
<path d="M26.5387 21.4027C27.1658 19.9907 27.3428 18.5786 27.047 17.0883C26.2573 13.1072 21.9737 10.8278 18.2105 12.4136C18.0426 12.4843 17.8928 12.5941 17.7634 12.3376C17.0146 10.8466 16.3845 9.31866 16.3693 7.61773C16.3504 5.50604 17.6606 4.43327 19.7634 4.74999C22.1182 5.10507 24.1227 6.20718 25.9918 7.58613C28.8193 9.67148 31.1242 12.227 32.7694 15.3362C33.5826 16.8724 34.2074 18.4786 34.1892 20.2585C34.1711 22.0828 33.0962 23.0976 31.2777 22.9419C29.5977 22.7975 28.0364 22.2498 26.5387 21.402V21.4027Z" fill="url(#paint1_radial_16_1766)"/>
<path d="M19.373 14.903C20.3859 14.3244 22.1242 14.6178 23.1544 15.5161C24.3912 16.5949 24.867 18.3898 24.2573 19.8779C22.3624 18.4545 20.7649 16.7874 19.373 14.903Z" fill="url(#paint2_linear_16_1766)"/>
</g>
</g>
<defs>
<linearGradient id="paint0_linear_16_1766" x1="8.63207" y1="19.2224" x2="20.731" y2="33.8429" gradientUnits="userSpaceOnUse">
<stop stop-color="#5196FB"/>
<stop offset="1" stop-color="#515FFB"/>
</linearGradient>
<radialGradient id="paint1_radial_16_1766" cx="0" cy="0" r="1" gradientUnits="userSpaceOnUse" gradientTransform="translate(32.5054 16.4015) scale(32.465 32.2876)">
<stop stop-color="#5196FB"/>
<stop offset="1" stop-color="#5122FB"/>
</radialGradient>
<linearGradient id="paint2_linear_16_1766" x1="18.3852" y1="20.8017" x2="24.2733" y2="14.8805" gradientUnits="userSpaceOnUse">
<stop stop-color="#5196FB"/>
<stop offset="1" stop-color="#515FFB"/>
</linearGradient>
<clipPath id="clip0_16_1766">
<rect width="53.5526" height="37" fill="white"/>
</clipPath>
</defs>
</svg>
