<svg width="103" height="71" viewBox="0 0 103 71" fill="none" xmlns="http://www.w3.org/2000/svg">
<g clip-path="url(#clip0_9_106)">
<path d="M86.9752 19.9003V0H16.0866V19.8355C7.46605 19.8355 0.478516 26.8245 0.478516 35.4436C0.478516 44.0627 7.46605 51.0517 16.0866 51.0517V70.8871H86.9752V50.9868C95.5597 50.9868 102.518 44.0281 102.518 35.4436C102.518 26.859 95.5597 19.9003 86.9752 19.9003Z" fill="#5196FB"/>
<mask id="mask0_9_106" style="mask-type:luminance" maskUnits="userSpaceOnUse" x="0" y="0" width="103" height="71">
<path d="M86.9732 19.9003V0H16.0846V19.8355C7.46409 19.8355 0.476562 26.8245 0.476562 35.4436C0.476562 44.0627 7.46409 51.0517 16.0846 51.0517V70.8871H86.9732V50.9868C95.5577 50.9868 102.516 44.0281 102.516 35.4436C102.516 26.859 95.5577 19.9003 86.9732 19.9003Z" fill="white"/>
</mask>
<g mask="url(#mask0_9_106)">
<path d="M23.3429 69.2946C22.0428 69.9475 20.4689 70.6768 18.957 71.5185C17.9596 72.0734 16.9622 72.1786 15.8783 71.9769C13.209 71.481 10.9043 70.3064 8.94985 68.4053C7.00982 66.5186 5.34221 64.4676 4.62876 61.7954C4.40968 60.9752 4.2324 60.1292 4.17186 59.2846C4.1315 58.7253 4.2151 58.0926 4.44715 57.5867C11.1637 42.8939 17.8817 28.2025 25.2411 13.8152C26.2126 11.9169 27.246 10.0476 28.3371 8.21707C30.0249 5.38487 32.6913 4.12516 35.868 3.93778C39.7538 3.70717 43.3888 4.80114 46.7802 6.56676C56.6216 11.6921 63.9262 19.2908 68.5586 29.4016C69.778 32.0623 70.5289 34.8729 70.6759 37.806C70.8129 40.5301 70.3905 43.1648 68.6393 45.36C67.959 46.2132 67.0697 47.0002 66.1127 47.5205C60.9412 50.3325 55.7323 53.0811 50.5061 55.7908C48.2129 56.9799 45.8506 58.0378 43.5056 59.1246C43.0746 59.3235 42.978 59.5584 43.0645 59.9894C43.4133 61.7132 43.7232 63.4442 44.0835 65.1652C44.3617 66.4955 43.9653 67.4958 42.831 68.2655C39.5419 70.4952 36.2744 72.7581 32.9925 74.9979C31.4475 76.0515 30.3434 75.9001 29.0073 74.6102C27.184 72.8503 25.3132 71.1395 23.3415 69.2946H23.3429ZM27.651 21.1241C27.4564 21.5017 27.308 21.7713 27.1754 22.048C24.1774 28.2976 21.1867 34.5515 18.1844 40.7996C15.3219 46.7595 12.4451 52.7136 9.59123 58.6778C9.44278 58.9891 9.29576 59.4129 9.38801 59.7112C10.4258 63.0738 12.569 65.4506 15.8797 66.6915C16.2891 66.8443 16.8973 66.7881 17.2965 66.5921C20.5251 65.0052 23.7248 63.3577 26.9361 61.7363C35.695 57.3143 44.4568 52.8952 53.2157 48.4732C53.4622 48.3493 53.6957 48.2008 54.0099 48.0206C41.4041 42.7497 32.7691 33.7515 27.651 21.1241ZM51.0494 41.0057C53.9033 42.6287 56.8781 43.6794 60.0793 43.9561C63.5443 44.2545 65.5924 42.3101 65.627 38.8149C65.6616 35.4047 64.471 32.3275 62.9216 29.3843C59.7867 23.4273 55.395 18.5312 50.0074 14.5358C46.4459 11.8939 42.6249 9.78235 38.1395 9.10204C34.1326 8.49381 31.6363 10.5506 31.6723 14.5964C31.7011 17.8538 32.9017 20.7811 34.3287 23.6392C34.5751 24.1322 34.8605 23.9203 35.1805 23.7848C42.3511 20.7465 50.5133 25.1137 52.018 32.7412C52.5816 35.595 52.2429 38.3004 51.0494 41.0072V41.0057ZM37.3929 28.5527C40.0435 32.1632 43.089 35.3572 46.6995 38.0842C47.8612 35.2332 46.9546 31.7942 44.5981 29.7274C42.635 28.0064 39.3228 27.4443 37.3929 28.5527ZM38.2303 61.7694C34.9167 63.4428 31.7487 65.0441 28.4783 66.6959C29.5881 67.7365 30.6043 68.6906 31.6564 69.6794C33.8285 68.1963 36.0972 66.6569 38.3499 65.096C38.5316 64.9692 38.7377 64.6751 38.7132 64.4863C38.6036 63.6215 38.4162 62.7668 38.2303 61.7694Z" fill="#EBF5FF"/>
<path d="M27.6511 21.124C32.7692 33.7515 41.4042 42.7496 54.01 48.0205C53.6958 48.2007 53.4608 48.3492 53.2158 48.4731C44.4569 52.8951 35.6951 57.3142 26.9362 61.7362C23.7235 63.3577 20.5252 65.0051 17.2966 66.592C16.8973 66.788 16.2891 66.8457 15.8798 66.6914C12.5691 65.4505 10.4258 63.0737 9.38806 59.7111C9.29581 59.4142 9.44283 58.989 9.59128 58.6777C12.4465 52.7135 15.322 46.7594 18.1845 40.7995C21.1853 34.5514 24.1775 28.2975 27.1754 22.0479C27.308 21.7712 27.4565 21.5002 27.6511 21.124Z" fill="url(#paint0_linear_9_106)"/>
<path d="M51.0494 41.006C52.2443 38.3006 52.5815 35.5952 52.018 32.74C50.5132 25.1125 42.351 20.7453 35.1804 23.7836C34.8605 23.9191 34.5751 24.1295 34.3286 23.638C32.9017 20.7813 31.7011 17.854 31.6723 14.5952C31.6362 10.5494 34.1326 8.49405 38.1395 9.10084C42.6263 9.78115 46.4458 11.8927 50.0073 14.5346C55.395 18.53 59.7867 23.4261 62.9216 29.3831C64.471 32.3263 65.6615 35.4035 65.6269 38.8137C65.5924 42.3089 63.5442 44.2533 60.0793 43.9549C56.8781 43.6782 53.9032 42.6289 51.0494 41.0045V41.006Z" fill="url(#paint1_radial_9_106)"/>
<path d="M37.3945 28.5523C39.3245 27.4439 42.6366 28.006 44.5997 29.727C46.9563 31.7938 47.8629 35.2328 46.7012 38.0838C43.0906 35.3568 40.0466 32.1628 37.3945 28.5523Z" fill="url(#paint2_linear_9_106)"/>
</g>
</g>
<defs>
<linearGradient id="paint0_linear_9_106" x1="16.9276" y1="36.8287" x2="40.1315" y2="64.7154" gradientUnits="userSpaceOnUse">
<stop stop-color="#5196FB"/>
<stop offset="1" stop-color="#515FFB"/>
</linearGradient>
<radialGradient id="paint1_radial_9_106" cx="0" cy="0" r="1" gradientUnits="userSpaceOnUse" gradientTransform="translate(62.4186 31.424) scale(61.8601 61.8601)">
<stop stop-color="#5196FB"/>
<stop offset="1" stop-color="#5122FB"/>
</radialGradient>
<linearGradient id="paint2_linear_9_106" x1="35.5122" y1="39.8537" x2="46.7934" y2="28.571" gradientUnits="userSpaceOnUse">
<stop stop-color="#5196FB"/>
<stop offset="1" stop-color="#515FFB"/>
</linearGradient>
<clipPath id="clip0_9_106">
<rect width="102.041" height="70.8886" fill="white" transform="translate(0.478516)"/>
</clipPath>
</defs>
</svg>
