<svg width="740" height="709" viewBox="0 0 740 709" fill="none" xmlns="http://www.w3.org/2000/svg">
<g clip-path="url(#clip0_154_578)">
<path d="M417.734 388.678L482.766 323.647L715.188 556.069L482.766 788.491L250.343 556.069L315.375 491.037C287.11 462.773 287.11 416.942 315.375 388.678C343.639 360.413 389.47 360.413 417.734 388.678Z" fill="white"/>
<path d="M409.627 661.631C406.851 657.036 403.668 652.635 401.376 647.808C398.116 640.931 396.955 633.599 399.112 626.044C400.264 622.049 402.498 618.77 405.429 615.858C416.978 604.367 428.47 592.837 439.99 581.316C454.993 566.313 470.18 551.494 484.921 536.25C493.946 526.915 504.567 523.917 516.978 526.171C538.297 530.04 559.597 533.967 580.897 537.914C588.064 539.239 591.547 545.313 588.654 551.398C588.093 552.578 587.165 553.642 586.246 554.599C583.712 557.23 581.1 559.784 578.507 562.376C574.445 566.439 570.382 567.406 566.349 565.288C562.238 563.131 560.748 559.32 561.831 553.535C561.173 553.381 560.506 553.177 559.839 553.052C544.855 550.314 529.872 547.538 514.869 544.897C512.238 544.433 509.5 544.327 506.84 544.452C503.155 544.636 500.514 546.813 498.589 549.821C496.771 552.665 497.351 556.089 499.963 559.223C503.677 563.673 508.553 566.42 513.757 568.664C521.717 572.098 530.239 573.249 538.713 574.429C559.626 577.35 580.568 580.107 601.5 582.932C608.068 583.812 611.947 588.213 610.757 593.968C610.341 596.009 609.132 598.186 607.652 599.666C579.359 628.114 550.959 656.475 522.578 684.836C520.276 687.139 517.539 688.425 514.201 687.951C487.63 684.188 461.068 680.454 434.506 676.624C428.17 675.705 422.637 672.823 417.559 668.982C417.075 668.615 416.514 668.344 415.992 668.034L409.588 661.631L409.627 661.631Z" fill="#B6F4AA"/>
<path d="M532 476.325C531.729 476.248 531.139 476.045 530.52 475.909C515.353 472.485 500.176 469.128 485.028 465.646C479.244 464.311 474.736 466.246 471.128 470.666C468.545 473.83 468.739 476.654 471.631 479.527C476.332 484.209 482.252 486.84 488.51 488.339C503.32 491.87 518.206 495.052 533.103 498.225C546.374 501.049 559.694 503.613 572.975 506.369C580.084 507.849 583.383 514.437 580.123 520.366C577.84 524.506 573.681 526.518 568.864 525.609C562.944 524.487 557.034 523.239 551.124 522.069C539.613 519.766 528.083 517.522 516.572 515.181C504.248 512.667 493.695 516.313 484.361 524.235C481.033 527.06 477.812 530.029 474.736 533.105C454.597 553.187 434.487 573.316 414.377 593.426C409.56 598.243 405.864 598.94 399.945 595.399C385.938 587.023 375.801 575.396 371.371 559.455C369.02 551.01 371.187 543.581 377.552 537.255C404.646 510.297 431.575 483.174 458.689 456.234C467.143 447.838 477.357 444.646 489.236 447.335C509.888 452.007 530.578 456.563 551.24 461.168C557.498 462.57 560.767 466.73 559.771 472.233C559.539 473.51 559.084 474.971 558.233 475.88C554.499 479.885 550.853 484.015 546.693 487.536C541.344 492.053 533.538 489.2 531.971 482.371C531.555 480.523 531.952 478.482 531.981 476.325H532Z" fill="#B6F4AA"/>
<path d="M539.178 647.072L526.651 644.877C529.882 641.588 531.014 638.309 530.211 635.629C529.398 632.921 526.603 630.86 522.047 630.057C512.974 628.471 500.283 632.514 493.589 639.092L481.778 637.032C490.523 628.094 499.132 620.897 509.25 615.519C520.064 609.793 530.163 606.659 539.516 606.127C554.751 605.285 564.976 603.65 570.199 601.213L572.385 608.835C566.456 611.302 561.503 612.849 557.527 613.478C553.977 614.049 548.377 614.465 540.716 614.736C534.815 614.968 529.611 615.819 525.094 617.26C520.799 618.672 516.678 620.646 512.703 623.17C519.561 621.497 525.558 621.11 530.714 622.01C538.636 623.393 543.395 626.604 544.982 631.634C546.433 636.432 544.488 641.588 539.178 647.072Z" fill="#D9FFD2"/>
<path d="M538.733 647.536L516.447 669.822L505.478 667.907L511.069 662.316C510.643 662.548 510.15 662.751 509.627 662.906C509.105 663.061 508.641 663.254 508.263 663.4C500.351 666.243 492.854 667.046 485.803 665.818C477.6 664.386 473.112 661.001 472.338 655.661C471.467 650.593 474.418 644.586 481.208 637.621C481.402 637.428 481.779 637.05 481.779 637.05L493.589 639.111C493.589 639.111 493.502 639.198 493.464 639.236L492.042 640.658C491.268 641.432 490.571 642.187 489.952 642.941C489.536 643.435 489.159 643.928 488.821 644.402C488.647 644.634 488.472 644.885 488.337 645.118C487.554 646.288 487.012 647.41 486.702 648.494C486.625 648.706 486.567 648.919 486.538 649.122C486.335 649.964 486.286 650.767 486.383 651.541C486.383 651.657 486.412 651.782 486.431 651.898C486.934 655.013 489.614 656.996 494.46 657.838C498.977 658.621 503.93 658.079 509.347 656.222C509.569 656.154 509.772 656.087 509.966 656.009C515.77 653.939 520.829 650.738 525.133 646.433L526.555 645.011C526.555 645.011 526.632 644.934 526.681 644.885L539.207 647.081C539.052 647.236 538.907 647.381 538.753 647.536L538.733 647.536Z" fill="white"/>
<path d="M315.394 388.698C346.366 357.841 392.487 363.432 417.734 388.678L482.765 323.647L250.343 91.2246L185.089 156.478C212.86 184.656 212.734 229.993 184.712 258.016C156.689 286.038 111.352 286.145 83.1744 258.393L17.9205 323.647L250.343 556.069L315.384 491.028C287.129 462.773 287.071 416.904 315.384 388.688L315.394 388.698Z" fill="#B6F4AA"/>
<path d="M417.511 258.413L482.765 323.667L715.197 91.2347L650.155 26.1936C678.42 -2.07081 678.42 -47.9014 650.155 -76.1658C621.891 -104.43 576.06 -104.43 547.796 -76.1658L482.765 -141.197L250.333 91.2347L315.587 156.489C287.438 184.637 287.438 230.274 315.587 258.422C343.735 286.571 389.372 286.571 417.52 258.422L417.511 258.413Z" fill="#EAFFE6"/>
</g>
<defs>
<clipPath id="clip0_154_578">
<rect width="740" height="709" fill="white"/>
</clipPath>
</defs>
</svg>
