<svg width="148" height="239" viewBox="0 0 148 239" fill="none" xmlns="http://www.w3.org/2000/svg">
<path d="M74.0014 84C94.4133 84 112.301 90.7447 126.835 105.092L126.871 105.074C139.525 117.75 146.512 132.568 147.806 150H115.733C113.291 128.74 95.0063 112.469 73.1058 112.469C51.2054 112.469 32.7357 128.74 30.2719 150H0.0175781C0.256519 120.909 3.21434 95.8823 13.0919 75.3162C24.2449 52.3507 39.5228 37.5606 58.9078 31.0167C90.5081 20.4827 109.912 10.1261 116.001 0L137.001 22C129.407 32.5695 121.861 39.6709 114.514 43.6965C107.981 47.2788 96.598 51.4995 80.3641 56.3408C67.9365 60.1536 58.359 65.4206 51.6141 72.1773C45.294 78.7211 41.1703 86.2818 38.0015 96C49.4023 87.3458 60.7417 84 74.0014 84Z" fill="white" fill-opacity="0.71"/>
<path d="M0.0351562 158C0.657325 181.772 7.25012 200.492 20.0016 215C33.4374 230.712 50.8065 239 71.9427 239C88.4778 239 112.128 231.408 120.002 215V235H148.002V158H116.002V160C116.002 175.269 111.613 187.306 103.417 196.651C95.4511 205.767 85.4671 210.324 73.3943 210.324C61.3215 210.324 50.6649 205.767 42.7343 196.651C34.556 187.306 30.0016 175.251 30.0016 160V158H0.0351562Z" fill="white"/>
</svg>
