<svg width="148" height="239" viewBox="0 0 148 239" fill="none" xmlns="http://www.w3.org/2000/svg">
<path d="M116 154C116 154.142 116 154.586 116 154.728V160C116 175.269 111.611 187.306 103.415 196.651C95.4495 205.767 85.4655 210.324 73.3927 210.324C61.3199 210.324 50.6633 205.767 42.7328 196.651C34.5544 187.306 30 175.251 30 160V154.5C30 154.358 30 154.142 30 154H0C0 154 0 155.668 0 156.342C0.354041 180.904 6.95358 200.157 20 215C33.4359 230.712 50.8049 239 71.9412 239C88.4762 239 112.126 231.407 120 215V235H148V154H116Z" fill="#3469EA"/>
<path d="M74 84C94.4118 84 112.299 90.7447 126.834 105.092L126.869 105.074C140.481 118.709 147.535 134.821 148 154H116C115.538 130.815 96.3596 112.469 73.1044 112.469C49.8492 112.469 30.4623 130.815 30 154H0C0 123.197 2.76304 96.8189 13.0904 75.3162C24.2434 52.3507 39.5213 37.5606 58.9064 31.0167C90.5066 20.4827 109.91 10.1261 116 0L137 22C129.405 32.5694 121.859 39.6709 114.512 43.6965C107.98 47.2788 96.5965 51.4995 80.3627 56.3408C67.935 60.1536 58.3576 65.4206 51.6126 72.1773C45.2926 78.7211 41.1689 86.2818 38 96C49.4009 87.3458 60.7403 84 74 84Z" fill="#FF9433"/>
</svg>
