<svg width="774" height="709" viewBox="0 0 774 709" fill="none" xmlns="http://www.w3.org/2000/svg">
<g clip-path="url(#clip0_154_591)">
<path d="M436.206 379.994L503.005 313.194L741.839 552.027L503.096 790.77L264.262 551.937L331.062 485.137C302.018 456.093 302.009 409.007 331.043 379.974C360.076 350.941 407.161 350.95 436.206 379.994Z" fill="white"/>
<path d="M425.222 474.153C443.465 455.911 461.688 437.648 479.95 419.426C494.298 405.118 515.316 403.005 532.213 414.198C534.449 415.679 536.546 417.479 538.445 419.377C575.033 455.906 611.602 492.455 648.13 529.023C664.491 545.384 664.496 570.964 648.121 587.378C611.606 623.953 575.062 660.498 538.497 697.003C522.023 713.457 496.473 713.363 479.963 696.872C443.444 660.393 406.945 623.894 370.466 587.376C353.986 570.896 354.011 545.385 370.485 528.851C388.698 510.579 406.97 492.366 425.212 474.124L425.222 474.153ZM527.036 575.867C520.607 582.296 514.198 588.744 507.74 595.123C505.951 596.892 505.077 598.86 505.863 601.294C506.648 603.71 508.527 604.853 510.982 605.261C526.336 607.798 541.691 610.394 557.045 612.932C561.756 613.708 564.747 610.697 563.971 605.986C561.434 590.632 558.847 575.287 556.31 559.932C555.902 557.458 554.759 555.619 552.334 554.844C549.889 554.048 547.931 554.932 546.172 556.731C539.833 563.149 533.425 569.518 527.046 575.897L527.036 575.867ZM457.92 643.591C457.92 643.591 457.99 643.522 458.03 643.482C459.421 644.873 460.763 646.335 462.214 647.647C466.747 651.782 473.594 651.674 477.797 647.451C482.03 643.218 482.118 636.411 477.893 631.928C475.13 629.006 472.297 626.153 469.345 623.419C465.22 619.612 458.959 619.611 454.746 623.228C450.523 626.854 449.551 633.075 452.742 637.677C454.223 639.814 456.171 641.623 457.91 643.581L457.92 643.591ZM544.738 488.566C546.13 489.958 547.472 491.399 548.913 492.741C553.396 496.846 560.015 496.808 564.257 492.684C568.56 488.501 568.817 481.664 564.682 477.131C561.968 474.159 559.115 471.307 556.153 468.603C551.631 464.458 544.744 464.725 540.601 469.027C536.487 473.3 536.449 479.899 540.554 484.381C541.886 485.833 543.337 487.165 544.729 488.556L544.738 488.566ZM613.005 556.833C614.397 558.224 615.738 559.665 617.18 561.007C621.633 565.103 628.251 565.084 632.544 560.99C636.826 556.927 637.093 549.94 632.978 545.428C630.274 542.466 627.412 539.603 624.45 536.899C619.907 532.734 613.189 532.992 608.927 537.334C604.754 541.586 604.685 548.135 608.82 552.648C610.152 554.099 611.603 555.431 612.985 556.833L613.005 556.833ZM439.774 593.769C438.383 592.377 437.031 590.946 435.6 589.594C431.057 585.37 424.369 585.378 420.076 589.591C415.804 593.784 415.597 600.612 419.761 605.154C422.425 608.056 425.228 610.84 428.121 613.513C432.623 617.698 439.451 617.55 443.674 613.308C447.926 609.055 447.985 602.317 443.78 597.775C442.498 596.393 441.106 595.101 439.784 593.759L439.774 593.769ZM507.892 661.886C506.56 660.554 505.258 659.173 503.886 657.881C499.383 653.676 492.844 653.615 488.572 657.709C484.16 661.922 483.754 668.61 487.869 673.222C490.602 676.273 493.525 679.176 496.566 681.919C501.029 685.965 507.827 685.727 511.96 681.594C516.183 677.371 516.261 670.574 512.076 666.051C510.744 664.6 509.293 663.268 507.902 661.876L507.892 661.886ZM578.882 522.709C580.273 524.101 581.615 525.542 583.056 526.884C587.519 530.969 594.168 530.941 598.42 526.847C602.693 522.734 602.97 515.797 598.835 511.284C596.121 508.313 593.269 505.46 590.307 502.756C585.774 498.601 578.967 498.868 574.764 503.19C570.62 507.453 570.572 514.022 574.697 518.525C576.029 519.976 577.48 521.308 578.862 522.709L578.882 522.709ZM510.565 454.393C511.957 455.785 513.299 457.226 514.74 458.568C519.312 462.782 525.961 462.694 530.243 458.412C534.496 454.159 534.644 447.372 530.439 442.869C527.815 440.046 525.062 437.332 522.259 434.688C517.706 430.394 510.75 430.512 506.517 434.864C502.324 439.177 502.315 445.845 506.55 450.397C507.832 451.779 509.224 453.071 510.556 454.403L510.565 454.393ZM405.571 559.546C404.18 558.155 402.838 556.713 401.397 555.372C396.854 551.187 390.116 551.265 385.874 555.508C381.71 559.671 381.493 566.409 385.549 570.882C388.242 573.854 391.105 576.696 394.077 579.41C398.619 583.575 405.387 583.328 409.62 579.035C413.853 574.723 413.861 568.094 409.597 563.532C408.315 562.15 406.923 560.858 405.591 559.526L405.571 559.546Z" fill="#FFE8C3"/>
<path d="M497.577 565.665L485.431 553.519C489.753 549.117 491.919 543.393 491.917 537.649C491.916 531.846 489.699 526.031 485.276 521.608C476.469 512.802 462.248 512.749 453.375 521.443L441.915 509.983C453.609 497.95 464.639 489.286 476.653 485.085C489.482 480.645 500.781 480.856 510.531 485.697C526.384 493.621 537.366 496.833 543.457 495.333L543.351 511.622C536.524 512.723 530.979 512.643 526.705 511.39C522.909 510.276 517.035 507.582 509.104 503.287C503.001 500.046 497.406 498.425 492.337 498.424C487.508 498.503 482.678 499.774 477.839 502.228C485.372 503.263 491.633 506.265 496.633 511.265C504.317 518.948 508.214 528.231 508.286 539.093C508.287 549.409 504.721 558.283 497.597 565.685L497.577 565.665Z" fill="#FFF4E1"/>
<path d="M496.962 566.282L467.303 595.941L456.658 585.295L464.1 577.853C463.593 578.022 463.026 578.111 462.44 578.121C461.854 578.131 461.317 578.171 460.89 578.24C451.906 578.855 443.995 575.713 437.156 568.874C429.195 560.912 425.645 551.481 426.498 540.529C427.171 530.035 432.039 520.118 441.13 510.768C441.379 510.52 441.896 510.003 441.896 510.003L453.356 521.464C453.296 521.523 453.247 521.573 453.187 521.632L451.299 523.52C450.266 524.554 449.322 525.597 448.448 526.67C447.871 527.385 447.325 528.091 446.838 528.816C446.58 529.174 446.332 529.542 446.123 529.909C444.97 531.718 444.056 533.586 443.401 535.494C443.262 535.852 443.133 536.239 443.033 536.637C442.567 538.137 442.269 539.688 442.13 541.278C442.1 541.506 442.08 541.765 442.07 542.013C441.624 548.423 443.772 553.989 448.474 558.69C452.847 563.064 458.095 565.132 464.207 564.864C464.445 564.864 464.674 564.855 464.912 564.835C471.501 564.409 477.642 561.329 483.375 555.596L485.263 553.708C485.313 553.658 485.372 553.599 485.432 553.539L497.578 565.686C497.37 565.894 497.171 566.093 496.962 566.302L496.962 566.282Z" fill="white"/>
<path d="M331.062 379.995C362.877 348.299 410.262 354.052 436.205 379.995L503.005 313.195L264.172 74.3613L197.143 141.39C225.681 170.344 225.56 216.923 196.775 245.708C167.991 274.493 121.412 274.593 92.4573 246.076L25.4287 313.104L264.262 551.938L331.072 485.128C302.038 456.094 301.969 408.968 331.052 379.985L331.062 379.995Z" fill="#F8DCAE"/>
<path d="M435.951 246.161L503.005 313.215L741.758 74.4617L674.923 7.62654C703.956 -21.4066 703.947 -68.4924 674.903 -97.5365C645.859 -126.581 598.773 -126.589 569.74 -97.5563L502.915 -164.382L264.162 74.3715L331.216 141.425C302.302 170.339 302.311 217.226 331.235 246.151C360.16 275.076 407.047 275.085 435.961 246.171L435.951 246.161Z" fill="#FFF4E1"/>
</g>
<defs>
<clipPath id="clip0_154_591">
<rect width="774" height="709" fill="white"/>
</clipPath>
</defs>
</svg>
