<svg width="810" height="709" viewBox="0 0 810 709" fill="none" xmlns="http://www.w3.org/2000/svg">
<g clip-path="url(#clip0_154_567)">
<path d="M488.257 371.926L557.19 302.992L803.56 549.362L557.19 795.732L310.821 549.362L379.755 480.428C349.794 450.468 349.794 401.887 379.755 371.926C409.715 341.966 458.296 341.966 488.257 371.926Z" fill="white"/>
<path d="M655.449 508.421C628.021 481.055 600.654 453.627 573.247 426.26C557.508 410.542 535.247 408.645 517.242 421.339C515.53 422.538 513.972 423.933 512.505 425.399C473.029 464.854 433.564 504.34 394.068 543.775C389.372 548.471 387.434 553.793 389.894 560.027C392.294 566.117 397.236 568.783 403.706 569.06C413.088 569.46 422.449 570.167 431.831 570.547C436.814 570.752 440.762 572.649 444.269 576.155C478.679 610.648 513.131 645.1 547.603 679.531C563.649 695.557 586.433 697.361 604.397 683.56C610.405 678.946 615.409 673.02 620.853 667.678C624.288 664.304 627.569 660.777 631.107 657.506L685.84 602.773C703.506 585.107 703.506 556.459 685.84 538.792L655.459 508.411L655.449 508.421Z" fill="#C5EAFF"/>
<path d="M525.107 599.575C537.462 608.731 554.38 613.756 572.508 613.756C619.787 613.766 602.807 612.597 650.086 612.587C651.491 612.576 652.906 612.597 654.3 612.412C663.733 611.161 669.26 601.144 665.107 592.582C662.329 586.83 657.499 584.4 651.142 584.4C602.92 584.451 618.967 585.589 570.755 585.61C568.889 585.61 566.992 585.661 565.126 585.805C550.72 586.861 537.472 591.311 525.107 599.575Z" fill="white"/>
<path d="M541.45 553.393L528.92 540.863C533.381 536.321 535.616 530.415 535.616 524.489C535.616 518.501 533.329 512.502 528.767 507.94C519.682 498.855 505.009 498.804 495.853 507.775L484.031 495.953C496.099 483.536 507.481 474.595 519.877 470.258C533.114 465.675 544.772 465.89 554.831 470.884C571.185 479.056 582.515 482.367 588.801 480.819L588.688 497.625C581.644 498.763 575.922 498.681 571.513 497.389C567.597 496.24 561.537 493.462 553.354 489.032C547.059 485.69 541.286 484.018 536.057 484.018C531.074 484.1 526.091 485.413 521.097 487.945C528.869 489.012 535.329 492.108 540.486 497.266C548.412 505.192 552.432 514.768 552.503 525.975C552.503 536.618 548.822 545.775 541.471 553.414L541.45 553.393Z" fill="#EFF8FF"/>
<path d="M540.826 554.038L510.219 584.645L499.238 573.664L506.917 565.984C506.394 566.158 505.81 566.25 505.205 566.261C504.6 566.271 504.046 566.312 503.606 566.384C494.336 567.019 486.175 563.779 479.12 556.725C470.907 548.512 467.247 538.781 468.129 527.482C468.826 516.654 473.85 506.421 483.232 496.773C483.488 496.517 484.021 495.983 484.021 495.983L495.844 507.806C495.782 507.867 495.731 507.918 495.669 507.98L493.721 509.928C492.655 510.994 491.681 512.071 490.779 513.178C490.184 513.917 489.62 514.645 489.117 515.393C488.851 515.762 488.594 516.142 488.379 516.521C487.19 518.387 486.246 520.315 485.57 522.283C485.426 522.653 485.293 523.053 485.19 523.463C484.708 525.011 484.401 526.61 484.257 528.251C484.227 528.487 484.206 528.753 484.196 529.01C483.734 535.623 485.949 541.365 490.799 546.215C495.311 550.727 500.724 552.859 507.03 552.582C507.276 552.582 507.512 552.572 507.758 552.552C514.556 552.111 520.893 548.932 526.809 543.016L528.757 541.068C528.809 541.017 528.87 540.955 528.932 540.893L541.461 553.423C541.246 553.639 541.041 553.844 540.826 554.059L540.826 554.038Z" fill="white"/>
<path d="M379.775 371.945C412.606 339.237 461.495 345.163 488.256 371.925L557.19 302.991L310.82 56.6211L241.651 125.791C271.088 155.659 270.955 203.717 241.251 233.421C211.546 263.126 163.489 263.238 133.62 233.821L64.4505 302.991L310.82 549.361L379.765 480.417C349.814 450.466 349.753 401.844 379.765 371.935L379.775 371.945Z" fill="#C5EAFF"/>
<path d="M488.021 233.841L557.19 303.011L803.571 56.6311L734.626 -12.3131C764.587 -42.2737 764.587 -90.8545 734.626 -120.815C704.666 -150.776 656.085 -150.776 626.124 -120.815L557.19 -189.749L310.81 56.6311L379.98 125.801C350.143 155.638 350.143 204.014 379.98 233.852C409.818 263.689 458.193 263.689 488.031 233.852L488.021 233.841Z" fill="#E1F2FF"/>
</g>
<defs>
<clipPath id="clip0_154_567">
<rect width="810" height="709" fill="white"/>
</clipPath>
</defs>
</svg>
