<svg width="285" height="38" viewBox="0 0 285 38" fill="none" xmlns="http://www.w3.org/2000/svg">
<path d="M274.311 33.5261V24.2246H277.071V29.2283C277.071 29.407 277.066 29.6006 277.054 29.809C277.048 30.0175 277.042 30.2111 277.036 30.3898H277.098C277.176 30.223 277.259 30.0652 277.348 29.9163C277.438 29.7614 277.554 29.5886 277.697 29.398L281.691 24.2246H284.47V33.5261H281.709V28.4688C281.709 28.296 281.712 28.1054 281.718 27.8969C281.724 27.6825 281.733 27.4859 281.745 27.3072H281.682C281.611 27.474 281.53 27.6348 281.441 27.7897C281.351 27.9386 281.232 28.1114 281.083 28.308L277.089 33.5261H274.311Z" fill="#1A1A1A"/>
<path d="M261.801 33.5261V24.2246H264.562V29.2283C264.562 29.407 264.556 29.6006 264.544 29.809C264.538 30.0175 264.532 30.2111 264.526 30.3898H264.589C264.666 30.223 264.749 30.0652 264.839 29.9163C264.928 29.7614 265.044 29.5886 265.187 29.398L269.181 24.2246H271.96V33.5261H269.199V28.4688C269.199 28.296 269.202 28.1054 269.208 27.8969C269.214 27.6825 269.223 27.4859 269.235 27.3072H269.172C269.101 27.474 269.02 27.6348 268.931 27.7897C268.842 27.9386 268.722 28.1114 268.574 28.308L264.58 33.5261H261.801Z" fill="#1A1A1A"/>
<path d="M257.896 35.9385V33.5261H249.041V24.2246H251.802V31.471H256.243V24.2246H259.013V31.471H260.505V35.9385H257.896Z" fill="#1A1A1A"/>
<path d="M236.256 30.7737C236.256 29.773 236.676 29.0164 237.516 28.5042C238.362 27.9859 239.595 27.7268 241.215 27.7268L243.904 27.7357V27.1371C243.904 26.6606 243.732 26.318 243.386 26.1096C243.041 25.8951 242.493 25.7879 241.742 25.7879C241.015 25.7879 240.467 25.8802 240.098 26.0649C239.729 26.2436 239.544 26.5116 239.544 26.869V26.9673H236.872V26.869C236.872 25.8862 237.316 25.1535 238.204 24.671C239.097 24.1885 240.318 23.9473 241.867 23.9473C243.392 23.9473 244.568 24.2183 245.396 24.7604C246.224 25.2965 246.638 26.1036 246.638 27.1818V31.4349C246.638 31.8102 246.677 32.1705 246.755 32.516C246.832 32.8556 246.936 33.1445 247.067 33.3827V33.5257H244.36C244.277 33.3887 244.199 33.21 244.128 32.9896C244.062 32.7692 244.017 32.5458 243.994 32.3195C243.761 32.6888 243.309 33.0104 242.636 33.2844C241.962 33.5525 241.123 33.6865 240.116 33.6865C238.907 33.6865 237.959 33.4393 237.274 32.9449C236.595 32.4505 236.256 31.7268 236.256 30.7737ZM239.008 30.5682C239.008 31.0388 239.172 31.3783 239.499 31.5868C239.827 31.7893 240.372 31.8906 241.134 31.8906C241.903 31.8906 242.561 31.7148 243.109 31.3634C243.663 31.012 243.94 30.586 243.94 30.0857V29.2368L241.679 29.2279C240.804 29.2279 240.14 29.3411 239.687 29.5674C239.234 29.7938 239.008 30.1274 239.008 30.5682Z" fill="#1A1A1A"/>
<path d="M232.244 33.5261L227.892 29.0853L230.233 27.9059L235.871 33.5261H232.244ZM226.364 27.745H228.518L232.145 24.2246H235.219L229.259 29.809H226.364V27.745ZM227.749 24.2246V33.5261H224.988V24.2246H227.749Z" fill="#1A1A1A"/>
<path d="M212.479 33.5261V24.2246H215.239V29.2283C215.239 29.407 215.234 29.6006 215.222 29.809C215.216 30.0175 215.21 30.2111 215.204 30.3898H215.266C215.344 30.223 215.427 30.0652 215.516 29.9163C215.606 29.7614 215.722 29.5886 215.865 29.398L219.859 24.2246H222.638V33.5261H219.877V28.4688C219.877 28.296 219.88 28.1054 219.886 27.8969C219.892 27.6825 219.901 27.4859 219.913 27.3072H219.85C219.778 27.474 219.698 27.6348 219.609 27.7897C219.519 27.9386 219.4 28.1114 219.251 28.308L215.257 33.5261H212.479Z" fill="#1A1A1A"/>
<path d="M200.148 24.2246H202.909V27.745H207.377V24.2246H210.147V33.5261H207.377V29.8001H202.909V33.5261H200.148V24.2246Z" fill="#1A1A1A"/>
<path d="M188.686 37.2252L188.722 35.2237C188.919 35.2714 189.142 35.3101 189.392 35.3399C189.648 35.3756 189.881 35.3935 190.089 35.3935C190.679 35.3935 191.167 35.2773 191.554 35.045C191.948 34.8127 192.305 34.2796 192.627 33.4456L192.323 33.4367L188.105 24.2246H190.92L193.252 29.7376C193.347 29.9639 193.431 30.1873 193.502 30.4077C193.574 30.6221 193.633 30.8515 193.681 31.0957H193.744C193.797 30.8515 193.854 30.6221 193.913 30.4077C193.979 30.1873 194.056 29.9639 194.146 29.7376L196.478 24.2246H199.105L194.557 34.5625C194.122 35.5096 193.538 36.2215 192.805 36.698C192.079 37.1805 191.242 37.4218 190.295 37.4218C189.973 37.4218 189.681 37.4039 189.419 37.3681C189.157 37.3384 188.913 37.2907 188.686 37.2252Z" fill="#1A1A1A"/>
<path d="M174.023 33.5261V24.2246H177.758L179.992 29.0317C180.165 29.4308 180.281 29.7197 180.341 29.8984C180.406 30.0771 180.454 30.235 180.484 30.372H180.555C180.591 30.235 180.641 30.0801 180.707 29.9073C180.772 29.7346 180.892 29.4397 181.064 29.0228L183.289 24.2246H186.997V33.5261H184.201V28.2811C184.201 27.8403 184.209 27.5187 184.227 27.3162C184.251 27.1077 184.275 26.92 184.299 26.7532H184.218C184.183 26.8843 184.138 27.0362 184.084 27.2089C184.031 27.3757 183.927 27.6408 183.772 28.0042L181.261 33.5261H179.286L176.767 27.9863C176.665 27.7421 176.579 27.5097 176.507 27.2894C176.436 27.069 176.382 26.8902 176.347 26.7532H176.266C176.272 26.8902 176.287 27.0719 176.311 27.2983C176.335 27.5187 176.347 27.8374 176.347 28.2543V33.5261H174.023Z" fill="#1A1A1A"/>
<path d="M158.564 33.5261V24.2246H162.299L164.533 29.0317C164.706 29.4308 164.822 29.7197 164.882 29.8984C164.947 30.0771 164.995 30.235 165.025 30.372H165.096C165.132 30.235 165.182 30.0801 165.248 29.9073C165.313 29.7346 165.433 29.4397 165.605 29.0228L167.83 24.2246H171.538V33.5261H168.742V28.2811C168.742 27.8403 168.75 27.5187 168.768 27.3162C168.792 27.1077 168.816 26.92 168.84 26.7532H168.759C168.724 26.8843 168.679 27.0362 168.625 27.2089C168.572 27.3757 168.468 27.6408 168.313 28.0042L165.802 33.5261H163.827L161.308 27.9863C161.206 27.7421 161.12 27.5097 161.048 27.2894C160.977 27.069 160.923 26.8902 160.888 26.7532H160.807C160.813 26.8902 160.828 27.0719 160.852 27.2983C160.876 27.5187 160.888 27.8374 160.888 28.2543V33.5261H158.564Z" fill="#1A1A1A"/>
<path d="M145.082 28.9957V28.7277C145.082 27.2623 145.612 26.0978 146.672 25.2341C147.739 24.3703 149.13 23.9385 150.845 23.9385C152.567 23.9385 153.958 24.3703 155.018 25.2341C156.078 26.0978 156.608 27.2623 156.608 28.7277V28.9957C156.608 30.4671 156.078 31.6346 155.018 32.4983C153.958 33.362 152.567 33.7939 150.845 33.7939C149.13 33.7939 147.739 33.362 146.672 32.4983C145.612 31.6346 145.082 30.4671 145.082 28.9957ZM147.906 28.6026V29.1387C147.906 29.9548 148.162 30.5892 148.674 31.0419C149.186 31.4946 149.91 31.721 150.845 31.721C151.786 31.721 152.51 31.4946 153.016 31.0419C153.523 30.5892 153.776 29.9548 153.776 29.1387V28.6026C153.776 27.7865 153.52 27.1521 153.007 26.6994C152.495 26.2467 151.774 26.0204 150.845 26.0204C149.916 26.0204 149.192 26.2467 148.674 26.6994C148.162 27.1521 147.906 27.7865 147.906 28.6026Z" fill="#1A1A1A"/>
<path d="M141.052 33.5261L136.701 29.0853L139.042 27.9059L144.68 33.5261H141.052ZM135.173 27.745H137.326L140.954 24.2246H144.028L138.068 29.809H135.173V27.745ZM136.558 24.2246V33.5261H133.797V24.2246H136.558Z" fill="#1A1A1A"/>
<path d="M221.164 6.22461H228.982V8.27968H223.925V15.5261H221.164V6.22461Z" fill="#1A1A1A"/>
<path d="M208.834 6.22461H211.595V9.74504H216.062V6.22461H218.832V15.5261H216.062V11.8001H211.595V15.5261H208.834V6.22461Z" fill="#1A1A1A"/>
<path d="M196.324 15.5261V6.22461H199.085V11.2283C199.085 11.407 199.079 11.6006 199.067 11.809C199.061 12.0175 199.055 12.2111 199.049 12.3898H199.112C199.189 12.223 199.273 12.0652 199.362 11.9163C199.452 11.7614 199.568 11.5886 199.711 11.398L203.705 6.22461H206.483V15.5261H203.722V10.4688C203.722 10.296 203.725 10.1054 203.731 9.89694C203.737 9.68249 203.746 9.48592 203.758 9.30722H203.696C203.624 9.47401 203.544 9.63484 203.454 9.78972C203.365 9.93863 203.246 10.1114 203.097 10.308L199.103 15.5261H196.324Z" fill="#1A1A1A"/>
<path d="M192.42 17.9385V15.5261H185.299V17.9385H182.689V13.471H195.02V17.9385H192.42ZM187.005 8.27075L186.916 10.3973C186.874 11.2432 186.8 11.9312 186.692 12.4613C186.591 12.9855 186.475 13.3965 186.344 13.6944H183.681C183.848 13.474 184.012 13.048 184.173 12.4166C184.339 11.7852 184.447 10.9126 184.494 9.79865L184.646 6.22461H193.537V15.3652H190.803V8.27075H187.005Z" fill="#1A1A1A"/>
<path d="M171.449 6.22461H174.21V9.74504H178.678V6.22461H181.448V15.5261H178.678V11.8001H174.21V15.5261H171.449V6.22461Z" fill="#1A1A1A"/>
<path d="M158.984 10.9957V10.7277C158.984 9.28616 159.503 8.12758 160.539 7.25194C161.582 6.3763 162.925 5.93848 164.569 5.93848C166.213 5.93848 167.5 6.35247 168.429 7.18046C169.358 8.00249 169.823 9.13426 169.823 10.5758V11.4961H160.771V9.93247H167.089V9.80738C167.089 9.22362 166.895 8.76495 166.508 8.43137C166.121 8.09779 165.465 7.931 164.542 7.931C163.595 7.931 162.883 8.16332 162.407 8.62794C161.93 9.08661 161.692 9.73292 161.692 10.5669V11.1298C161.692 11.9697 161.939 12.6219 162.433 13.0866C162.928 13.5452 163.699 13.7746 164.748 13.7746C165.421 13.7746 165.992 13.6614 166.463 13.435C166.94 13.2087 167.339 12.9079 167.66 12.5326L169.626 13.7835C169.281 14.3673 168.685 14.8498 167.839 15.231C166.999 15.6063 165.987 15.7939 164.801 15.7939C162.984 15.7939 161.561 15.3591 160.53 14.4894C159.5 13.6137 158.984 12.4492 158.984 10.9957Z" fill="#1A1A1A"/>
<path d="M146.682 19.2334V6.22392H149.291L149.353 7.40335H149.38C149.654 7.01616 150.101 6.69152 150.72 6.42942C151.346 6.16137 152.058 6.02734 152.856 6.02734C154.309 6.02734 155.477 6.45325 156.358 7.30506C157.24 8.15092 157.681 9.29163 157.681 10.7272V10.9953C157.681 12.4308 157.243 13.5775 156.367 14.4353C155.498 15.2871 154.354 15.713 152.936 15.713C152.144 15.713 151.441 15.5998 150.828 15.3735C150.22 15.1471 149.758 14.8463 149.443 14.471V19.2334H146.682ZM149.407 12.2551C149.592 12.6304 149.928 12.958 150.417 13.238C150.911 13.5179 151.483 13.6579 152.132 13.6579C153.061 13.6579 153.746 13.4316 154.187 12.9789C154.634 12.5261 154.857 11.9096 154.857 11.1293V10.6021C154.857 9.82178 154.637 9.20824 154.196 8.76148C153.761 8.31473 153.07 8.09135 152.123 8.09135C151.462 8.09135 150.893 8.22836 150.417 8.50237C149.94 8.77638 149.603 9.09208 149.407 9.44949V12.2551Z" fill="#1A1A1A"/>
<path d="M136.156 10.9331V11.1833C136.156 11.9755 136.391 12.598 136.862 13.0507C137.338 13.4975 138.08 13.7208 139.087 13.7208C140.093 13.7208 140.832 13.4945 141.302 13.0418C141.779 12.5891 142.017 11.9696 142.017 11.1833V10.9331C142.017 10.1587 141.782 9.55113 141.311 9.11033C140.847 8.66358 140.111 8.4402 139.104 8.4402C138.086 8.4402 137.338 8.6606 136.862 9.1014C136.391 9.5422 136.156 10.1528 136.156 10.9331ZM139.81 6.39406C141.377 6.39406 142.61 6.79614 143.509 7.6003C144.409 8.40446 144.859 9.50943 144.859 10.9152V11.1833C144.859 12.601 144.328 13.7238 143.268 14.5518C142.208 15.3798 140.823 15.7938 139.113 15.7938C137.338 15.7938 135.926 15.3858 134.878 14.5697C133.836 13.7477 133.314 12.4223 133.314 10.5936V9.32478C133.314 7.2697 133.725 5.69712 134.547 4.60704C135.375 3.511 136.826 2.85278 138.899 2.63238C140.323 2.48347 141.124 2.36433 141.302 2.27498C141.487 2.18563 141.588 2.05458 141.606 1.88184H144.162C144.114 2.84087 143.816 3.51994 143.268 3.91904C142.726 4.31218 141.624 4.59215 139.962 4.75894C138.33 4.91381 137.204 5.25633 136.585 5.78647C135.971 6.31662 135.652 7.10887 135.629 8.16321L135.727 8.15428C136.072 7.57647 136.603 7.13865 137.317 6.84082C138.032 6.54298 138.863 6.39406 139.81 6.39406Z" fill="#1A1A1A"/>
<path d="M108.86 27.0123V34.2832C107.79 34.3462 106.704 34.3776 105.602 34.3776C102.612 34.3776 100.314 33.6694 98.7088 32.253C97.1035 30.8051 96.0963 28.6333 95.6871 25.7375C95.3094 24.0063 94.9159 22.9991 94.5067 22.7158C94.129 22.401 92.9014 22.2122 90.824 22.1492H83.5059V33.9999H74.252V0.950195H95.2149C99.5271 0.950195 102.832 1.84726 105.13 3.64139C107.428 5.43552 108.576 8.11097 108.576 11.6678C108.576 15.917 106.546 18.7341 102.486 20.119V20.3551C103.682 21.1735 104.39 22.2909 104.61 23.7073C104.925 25.9106 106.342 27.0123 108.86 27.0123ZM83.5059 8.22114V14.9727H95.2149C96.5054 14.9727 97.5127 14.6894 98.2366 14.1229C98.9606 13.5248 99.3225 12.6907 99.3225 11.6205C99.3225 10.5504 98.9606 9.71625 98.2366 9.1182C97.5127 8.52016 96.5054 8.22114 95.2149 8.22114H83.5059Z" fill="#1A1A1A"/>
<path d="M69.0708 24.9349C69.0708 28.0195 68.095 30.3015 66.1435 31.7809C64.2235 33.2602 61.2648 33.9999 57.2673 33.9999H36.3516V0.950195H57.2673C65.0104 0.950195 68.882 3.83024 68.882 9.59034C68.882 13.273 67.135 15.7596 63.6412 17.0501V17.239C67.2609 18.5925 69.0708 21.1577 69.0708 24.9349ZM56.323 8.31557H45.6055V13.9812H55.8981C57.0313 13.9812 57.9283 13.7294 58.5893 13.2258C59.2503 12.7222 59.5808 12.0455 59.5808 11.1956C59.5808 9.27558 58.4949 8.31557 56.323 8.31557ZM59.8169 23.8017C59.8169 22.7315 59.4549 21.8974 58.731 21.2994C58.0385 20.7013 57.0942 20.4023 55.8981 20.4023H45.5583V26.6818H56.323C58.6523 26.6818 59.8169 25.7218 59.8169 23.8017Z" fill="#1A1A1A"/>
<path d="M19.407 22.1494C17.1407 23.0622 15.4253 23.8491 14.2607 24.5101C13.096 25.1711 12.1832 25.9107 11.5222 26.7291H30.1717V34.0001H0.804688V31.0256C0.962067 28.3816 1.70175 26.1783 3.02374 24.4156C4.40868 22.59 5.98248 21.1736 7.74513 20.1664C9.60221 19.0962 11.8842 17.9631 14.5911 16.767C16.3223 16.0116 17.6758 15.382 18.6515 14.8784C20.8863 13.7453 22.0037 12.439 22.0037 10.9597C22.0037 10.1728 21.5001 9.55899 20.4929 9.11832C19.5171 8.64618 18.1794 8.41011 16.4797 8.41011C14.6226 8.41011 13.1747 8.75635 12.136 9.44882C11.0973 10.1098 10.578 11.0541 10.578 12.2817H1.27683C1.27683 8.56749 2.63029 5.68745 5.33722 3.64151C8.07563 1.5641 11.8842 0.525391 16.763 0.525391C21.264 0.525391 24.7894 1.42246 27.3389 3.21659C29.9199 4.97924 31.2104 7.41862 31.2104 10.5347C31.2104 12.6122 30.6596 14.3905 29.558 15.8699C28.5507 17.2549 27.213 18.4195 25.5448 19.3637C23.971 20.2136 21.925 21.1421 19.407 22.1494Z" fill="#1A1A1A"/>
</svg>
