<svg width="197" height="71" viewBox="0 0 197 71" fill="none" xmlns="http://www.w3.org/2000/svg">
<path d="M143.403 26.9816L147.913 12.9949H150.387L143.044 34.1339C142.286 36.2001 141.208 36.7962 139.053 35.4452V33.6174C140.729 34.3326 140.689 34.571 140.849 34.0942L142.485 29.2465L135.82 12.8359H138.295L143.403 26.9816Z" fill="#130C13"/>
<path d="M167.462 14.0846L167.343 14.0443L162.56 24.9194H159.85L155.028 14.004H154.909L154.829 29.7125H152.717L152.797 12.8762L157.18 12.8359L161.245 23.3888H161.325L165.51 12.8762H169.575L169.614 29.7528H167.422L167.462 14.0846Z" fill="#130C13"/>
<path d="M90.1917 25.2242V11.4505C88.1 11.2081 86.0904 11.0869 84.9009 12.4199C83.9362 13.9614 83.3586 15.7072 83.2159 17.5126C83.0733 19.3179 83.3697 21.1308 84.0807 22.8007C84.5711 23.9286 85.4844 24.8268 86.6303 25.3084C87.7762 25.7899 89.0666 25.8176 90.2328 25.3858L90.1917 25.2242ZM92.5706 11.4101V25.2242C93.731 25.6543 95.0154 25.6254 96.1546 25.1435C97.2939 24.6616 98.1995 23.7641 98.6817 22.6391C99.3868 20.9591 99.6764 19.1382 99.5267 17.3263C99.3769 15.5144 98.7921 13.7635 97.8204 12.2179C97.0674 11.6945 96.202 11.3493 95.2914 11.2091C94.3809 11.069 93.4497 11.1378 92.5706 11.4101ZM90.1507 5.83594H92.5706V9.87517C93.929 9.66078 95.3135 9.66078 96.672 9.87517C98.1308 10.1826 99.4191 11.0188 100.281 12.2179C102.947 15.8532 102.578 23.6086 99.0098 26.0321C98.0623 26.6566 96.993 27.0797 95.8702 27.2744C94.7474 27.4691 93.5956 27.4312 92.4885 27.1631V30.9196H90.1097V27.2035C88.9964 27.4775 87.8371 27.5184 86.7068 27.3236C85.5764 27.1288 84.5001 26.7026 83.5475 26.0725C79.9793 23.6086 79.4461 15.8936 82.2761 12.2179C83.1381 11.0451 84.4082 10.2256 85.8443 9.91556C87.2018 9.68958 88.5882 9.68958 89.9457 9.91556L90.1507 5.83594Z" fill="#130C13"/>
<path d="M95.1095 56.552V37.8017H88.1457C88.0714 44.3028 86.5679 50.7064 83.7432 56.552H95.1095ZM99.1117 61.8343H97.5909L97.0706 58.6084H81.3019L80.8216 61.7536H79.3008V56.552H81.1818C84.4075 50.0457 86.0405 42.8561 85.9444 35.584H97.3107V56.552H99.0717L99.1117 61.8343Z" fill="#231F20"/>
<path d="M127.703 50.0184H120.556V58.2943H118.342V41.418L120.556 41.4585V48.274H127.703V41.4585H129.995V58.2943L127.703 58.3348V50.0184Z" fill="#130C13"/>
<path d="M157.264 42.6598C156.305 42.6495 155.371 42.9836 154.614 43.6076C153.856 44.2317 153.321 45.109 153.094 46.0968V54.9348C153.63 55.7823 154.4 56.4336 155.298 56.7998C156.197 57.166 157.18 57.2292 158.113 56.9806C160.971 56.2032 161.974 53.0936 161.588 48.7973C161.588 45.4421 160.932 42.4961 157.303 42.4961L157.264 42.6598ZM150.971 41.3914H152.824V43.6418C153.525 42.4123 154.632 41.5019 155.93 41.0863C157.227 40.6707 158.624 40.7794 159.851 41.3914C160.584 41.5958 161.258 41.991 161.811 42.5411C162.364 43.0913 162.778 43.779 163.017 44.5419C163.55 46.1579 163.798 47.8637 163.75 49.5747C163.978 52.2739 163.203 54.9608 161.588 57.0625C161.042 57.6712 160.387 58.1594 159.662 58.4993C158.936 58.8391 158.155 59.0238 157.362 59.0428C156.569 59.0618 155.781 58.9148 155.042 58.61C154.303 58.3053 153.628 57.8489 153.056 57.2671V64.7548H150.971V41.3914Z" fill="#130C13"/>
<path d="M127.393 14.2729C126.429 14.2157 125.474 14.4873 124.684 15.0435C123.895 15.5996 123.317 16.4074 123.045 17.3348V26.0372C123.593 26.8727 124.388 27.5161 125.319 27.8773C126.25 28.2384 127.271 28.2994 128.239 28.0516C131.218 27.2861 132.063 24.0227 131.862 19.9939C131.862 16.6902 131.177 14.0715 127.393 14.1118V14.2729ZM120.831 12.7822H122.804V14.9981C123.53 13.8249 124.65 12.9492 125.964 12.5283C127.277 12.1074 128.697 12.1689 129.97 12.7017C130.724 12.9152 131.415 13.3092 131.983 13.8497C132.551 14.3901 132.979 15.0608 133.231 15.8039C133.749 17.3359 134.021 18.9406 134.036 20.5579C134.258 23.2206 133.435 25.8653 131.741 27.9307C131.158 28.5167 130.464 28.9816 129.701 29.2988C128.938 29.616 128.119 29.7793 127.292 29.7793C126.466 29.7793 125.647 29.616 124.884 29.2988C124.121 28.9816 123.427 28.5167 122.844 27.9307V35.5856H120.67L120.831 12.7822Z" fill="#130C13"/>
<path d="M190.472 48.4127C190.873 48.4367 191.274 48.3821 191.653 48.2518C192.033 48.1216 192.383 47.9184 192.683 47.6538C193.688 46.5753 193.768 43.6594 192.08 43.1001C190.074 42.6622 188.008 42.5676 185.971 42.8205V48.4127H190.472ZM186.011 56.6412C188.281 57.0768 190.614 57.0768 192.884 56.6412C194.813 55.9622 194.893 53.0862 194.089 51.5683C193.78 51.1127 193.35 50.7517 192.846 50.5259C192.341 50.3002 191.784 50.2185 191.236 50.2901H186.011V56.8409V56.6412ZM183.6 41.4225C184.042 41.4225 186.574 41.4225 188.985 41.4225C190.336 41.3909 191.686 41.5251 193.004 41.8219C193.603 42.004 194.15 42.3225 194.603 42.7522C195.056 43.1818 195.402 43.7106 195.612 44.2964C195.823 44.8822 195.893 45.5089 195.817 46.1265C195.741 46.7441 195.521 47.3354 195.175 47.8535C194.748 48.4516 194.164 48.9214 193.487 49.2116C194.473 49.3901 195.364 49.9086 196.004 50.6757C196.643 51.4428 196.99 52.4095 196.983 53.4057C197.224 56.4415 195.014 58.5985 191.477 58.8781C188.872 58.9893 186.263 58.869 183.68 58.5186L183.6 41.4225Z" fill="#130C13"/>
<path d="M113.998 15.4218C114.692 16.227 115.216 17.1573 115.54 18.1597C115.865 19.1621 115.983 20.2169 115.889 21.2639C116.079 23.5522 115.471 25.836 114.162 27.7462C113.273 28.3955 112.191 28.7465 111.079 28.7465C109.967 28.7465 108.886 28.3955 107.996 27.7462C106.667 25.8437 106.044 23.5574 106.228 21.2639C106.173 20.1857 106.338 19.1077 106.711 18.0914C107.085 17.0752 107.662 16.1408 108.407 15.3417C109.287 14.8426 110.287 14.5796 111.305 14.5796C112.324 14.5796 113.324 14.8426 114.203 15.3417L113.998 15.4218ZM115.067 29.4268C116.24 28.4204 117.145 27.1518 117.703 25.7299C118.262 24.3081 118.457 22.7755 118.273 21.2639C118.369 19.8934 118.132 18.5203 117.582 17.2553C117.032 15.9902 116.185 14.8687 115.108 13.9812C113.874 13.2327 112.45 12.8359 110.997 12.8359C109.544 12.8359 108.119 13.2327 106.886 13.9812C105.818 14.8704 104.985 15.9956 104.456 17.2627C103.927 18.5297 103.717 19.9017 103.844 21.2639C103.652 22.7952 103.852 24.349 104.426 25.787C105 27.2251 105.929 28.5029 107.133 29.5068C108.378 30.0908 109.749 30.3739 111.13 30.3321C112.511 30.2903 113.861 29.9248 115.067 29.2667V29.4268Z" fill="#130C13"/>
<path d="M110.69 43.8667C111.907 45.5103 112.51 47.5446 112.389 49.6025C112.571 51.9125 111.987 54.2179 110.729 56.1462C109.872 56.7955 108.833 57.146 107.766 57.146C106.699 57.146 105.661 56.7955 104.803 56.1462C103.576 54.2054 103.007 51.9063 103.183 49.6025C103.071 47.4565 103.763 45.3473 105.119 43.7051C105.961 43.1889 106.923 42.9162 107.905 42.9162C108.886 42.9162 109.849 43.1889 110.69 43.7051V43.8667ZM111.717 58.0043C112.821 57.0048 113.677 55.7506 114.213 54.3458C114.749 52.9409 114.95 51.4257 114.799 49.9257C114.891 48.5423 114.663 47.1561 114.135 45.8791C113.606 44.6021 112.792 43.47 111.757 42.5741C110.571 41.8185 109.203 41.418 107.806 41.418C106.409 41.418 105.04 41.8185 103.855 42.5741C102.871 43.4364 102.096 44.5193 101.588 45.7385C101.081 46.9576 100.856 48.28 100.931 49.6025C100.747 51.1484 100.939 52.7168 101.49 54.1685C102.042 55.6202 102.935 56.9101 104.092 57.9235C105.263 58.5626 106.567 58.9037 107.895 58.9177C109.222 58.9318 110.533 58.6185 111.717 58.0043Z" fill="#130C13"/>
<path d="M143.707 44.0339C145.036 45.6448 145.708 47.6737 145.596 49.7345C145.786 52.0142 145.178 54.2894 143.871 56.1924C142.983 56.8393 141.902 57.189 140.791 57.189C139.68 57.189 138.599 56.8393 137.711 56.1924C136.383 54.2971 135.76 52.0194 135.945 49.7345C135.797 47.6073 136.504 45.5073 137.916 43.8745C138.795 43.3772 139.794 43.1152 140.812 43.1152C141.829 43.1152 142.828 43.3772 143.707 43.8745V44.0339ZM144.775 57.9863C145.965 56.9718 146.88 55.6883 147.439 54.2491C147.998 52.81 148.183 51.2595 147.978 49.7345C148.07 48.3812 147.832 47.0259 147.282 45.779C146.733 44.5321 145.888 43.4288 144.816 42.559C143.584 41.8133 142.161 41.418 140.709 41.418C139.257 41.418 137.834 41.8133 136.602 42.559C135.55 43.4388 134.726 44.5471 134.198 45.7938C133.67 47.0406 133.452 48.3907 133.563 49.7345C133.371 51.2601 133.571 52.808 134.144 54.2406C134.717 55.6733 135.646 56.9463 136.848 57.9464C138.074 58.5777 139.439 58.9111 140.827 58.9181C142.215 58.925 143.583 58.6053 144.816 57.9863H144.775Z" fill="#130C13"/>
<path d="M176.53 43.6472C177.783 45.2878 178.428 47.3414 178.347 49.4344C178.529 51.7816 177.945 54.1243 176.688 56.0836C175.83 56.7434 174.792 57.0996 173.725 57.0996C172.658 57.0996 171.619 56.7434 170.762 56.0836C169.499 54.124 168.888 51.7886 169.023 49.4344C168.913 47.2415 169.604 45.0863 170.959 43.4009C171.805 42.8889 172.766 42.6192 173.744 42.6192C174.723 42.6192 175.684 42.8889 176.53 43.4009V43.6472ZM177.557 58.0127C178.701 56.9513 179.578 55.6138 180.108 54.118C180.639 52.6221 180.807 51.0138 180.599 49.4344C180.699 48.0378 180.479 46.6364 179.957 45.3451C179.435 44.0538 178.626 42.9093 177.596 42.0054C176.409 41.2422 175.041 40.8379 173.646 40.8379C172.25 40.8379 170.882 41.2422 169.695 42.0054C168.682 42.9196 167.89 44.0681 167.382 45.3584C166.874 46.6487 166.665 48.0448 166.771 49.4344C166.584 51.0054 166.774 52.6003 167.326 54.076C167.877 55.5517 168.773 56.8621 169.932 57.8896C171.1 58.5454 172.403 58.899 173.73 58.9204C175.057 58.9418 176.37 58.6305 177.557 58.0127Z" fill="#130C13"/>
<path fill-rule="evenodd" clip-rule="evenodd" d="M32.2412 49.0023C32.2412 49.0023 32.2412 49.0023 31.9587 49.0023H31.6761C26.4076 47.0462 21.2472 44.8145 16.2168 42.3167C12.8263 40.315 11.575 39.3942 10.6466 38.7536L8.95135 37.5526C7.41753 36.6719 6.3277 37.5526 7.45789 39.2741C9.63128 42.1594 12.379 44.5712 15.5306 46.3601C18.1852 48.0948 20.9957 49.5823 23.9263 50.8038C23.9263 50.8038 23.9263 51.2042 23.2401 51.044C19.9109 49.877 16.7598 48.2605 13.8757 46.24C10.2945 44.0697 7.06861 41.3697 4.30952 38.2332C3.72471 37.5238 2.93647 37.0072 2.04915 36.752C1.08042 36.752 0.797877 38.9538 2.53352 41.3959C4.45077 44.1188 6.74743 46.5584 9.35498 48.642C12.7181 51.4327 16.4533 53.7498 20.455 55.5278C20.3465 55.6611 20.1978 55.7563 20.0307 55.7996C19.8636 55.8428 19.6869 55.8318 19.5266 55.768C14.7437 53.6108 10.3416 50.7046 6.48916 47.1608L1.7666 42.757C0.273146 41.6761 0.596059 43.6378 0.878605 44.5586C2.23174 47.7561 4.28626 50.6144 6.8928 52.9256C9.92182 56.2122 13.6237 58.8192 17.7506 60.5721C17.7506 60.8123 17.7506 60.9724 17.2259 61.0125C12.5584 58.8778 8.4236 55.7474 5.11679 51.8447C2.17024 48.2016 1.08042 48.5219 2.04915 50.8038C2.55797 51.8608 3.12389 52.8899 3.74443 53.8864C7.53559 60.0913 13.1777 64.9739 19.8899 67.8583C26.6563 70.7164 34.1682 71.3478 41.3231 69.6598C42.4532 69.4196 43.6238 69.0993 44.8347 68.779C45.8842 53.9265 37.2867 47.8013 28.6892 38.2732C26.8325 36.9521 26.7518 38.9138 27.0343 40.9155C27.0291 42.6425 27.6939 44.3053 28.891 45.5594C29.858 46.6282 30.8963 47.6313 31.999 48.5619C32.1211 48.6824 32.2052 48.8354 32.2412 49.0023Z" fill="#0097AF"/>
<path fill-rule="evenodd" clip-rule="evenodd" d="M47.9878 29.4788C48.0617 29.5048 48.125 29.5543 48.1684 29.6197C48.2119 29.6851 48.2329 29.7629 48.2285 29.8413C48.9611 34.4921 49.3365 39.1925 49.3515 43.9011C49.3515 45.7945 49.3515 47.9296 49.0708 49.6619C48.8301 54.1336 48.1483 56.1882 48.3488 57.719C48.6697 60.0556 50.3141 59.975 51.7981 55.0199C53.6049 48.6753 54.3238 42.0682 53.9239 35.4813C53.9239 35.4813 54.2848 35.2396 54.5255 36.0051C55.9293 42.9745 52.7206 53.8113 51.2767 60.4988C50.1136 65.1316 53.603 64.5273 55.4881 58.847C58.2022 51.5939 59.4432 43.8684 59.1379 36.1259C59.3045 36.1481 59.4599 36.2223 59.5822 36.3379C59.7045 36.4536 59.7876 36.6049 59.8198 36.7705C60.0248 41.9042 59.5255 47.0418 58.3358 52.0388C57.9347 53.9322 57.4534 55.181 56.932 57.0342C56.4106 58.8873 56.0496 60.1765 57.293 60.0153C58.5363 59.8542 60.1807 57.1148 61.3038 54.6573C62.0184 52.7508 62.5555 50.7818 62.9081 48.7756C64.0384 44.3863 64.4716 39.8452 64.1916 35.3202C64.1916 35.3202 64.1916 35.0382 64.6328 35.5216C65.5954 36.8108 64.6328 46.2779 63.1488 50.7899C61.1032 56.8328 63.1488 56.1479 65.475 50.7899C68.7611 43.8501 69.6539 36.0091 68.0127 28.5033C66.3714 20.9975 62.2895 14.2539 56.4106 9.33594C46.3434 14.1299 43.4155 23.2748 42.8139 32.8628C42.8139 35.3202 42.1722 37.2942 42.0117 39.5099C42.0117 44.1025 45.3808 39.3085 46.4637 37.4151C47.5467 35.5216 47.2258 32.4599 48.0681 29.3579C48.0433 29.3995 48.0165 29.4398 47.9878 29.4788Z" fill="#F7921E"/>
<path fill-rule="evenodd" clip-rule="evenodd" d="M21.6608 26.6218C21.6608 26.6218 21.6608 26.3783 21.8619 26.216C26.1848 22.6901 30.8795 19.6553 35.8611 17.1664C38.5325 15.5985 41.2854 14.1761 44.1077 12.9053L46.3202 11.7285C48.6132 10.511 47.6477 8.76604 42.5791 9.98348C36.0346 11.6413 29.8085 14.3841 24.1549 18.0997C24.1549 18.0997 23.7526 17.8968 24.1549 17.2881C30.4839 12.9646 37.59 9.93174 45.0732 8.36023C54.7278 5.88477 46.642 4.3021 41.6136 5.27605C34.5934 6.47332 27.8873 9.09649 21.9021 12.9865C21.834 12.8325 21.8208 12.6594 21.8648 12.4966C21.9088 12.3339 22.0073 12.1915 22.1435 12.0937C26.5751 9.15113 31.4531 6.95796 36.5852 5.6007C38.5161 4.99198 39.8838 4.82965 41.7745 4.3021C43.6652 3.77454 44.3088 3.40931 44.4295 2.92233C44.5502 2.43536 43.102 1.70489 41.6136 1.70489C39.0981 1.60141 36.5804 1.8472 34.1313 2.43536C32.7635 2.76001 32.2406 2.96292 31.3958 3.2064C26.9706 4.50867 22.7662 6.47887 18.9253 9.05011C18.9253 8.76604 18.6035 9.05011 18.9253 8.52256C23.2379 5.34871 28.177 3.1481 33.4072 2.07012C39.8436 0.852684 38.2747 -0.324174 32.2406 0.0816397C24.4829 0.79918 17.1614 4.02186 11.3638 9.27104C5.5661 14.5202 1.60142 21.5159 0.0585938 29.219C10.8396 36.6048 21.6608 32.425 34.4933 27.9204C38.5161 25.5261 32.3613 24.7145 30.0683 24.7145C27.7753 24.7145 25.1605 25.9319 22.0228 26.703L21.6608 26.6218Z" fill="#00974C"/>
<path fill-rule="evenodd" clip-rule="evenodd" d="M32.2412 49.0023C32.2412 49.0023 32.2412 49.0023 31.9587 49.0023H31.6761C26.4076 47.0462 21.2472 44.8145 16.2168 42.3167C12.8263 40.315 11.575 39.3942 10.6466 38.7536L8.95135 37.5526C7.41753 36.6719 6.3277 37.5526 7.45789 39.2741C9.63128 42.1594 12.379 44.5712 15.5306 46.3601C18.1852 48.0948 20.9957 49.5823 23.9263 50.8038C23.9263 50.8038 23.9263 51.2042 23.2401 51.044C19.9109 49.877 16.7598 48.2605 13.8757 46.24C10.2945 44.0697 7.06861 41.3697 4.30952 38.2332C3.72471 37.5238 2.93647 37.0072 2.04915 36.752C1.08042 36.752 0.797877 38.9538 2.53352 41.3959C4.45077 44.1188 6.74743 46.5584 9.35498 48.642C12.7181 51.4327 16.4533 53.7498 20.455 55.5278C20.3465 55.6611 20.1978 55.7563 20.0307 55.7996C19.8636 55.8428 19.6869 55.8318 19.5266 55.768C14.7437 53.6108 10.3416 50.7046 6.48916 47.1608L1.7666 42.757C0.273146 41.6761 0.596059 43.6378 0.878605 44.5586C2.23174 47.7561 4.28626 50.6144 6.8928 52.9256C9.92182 56.2122 13.6237 58.8192 17.7506 60.5721C17.7506 60.8123 17.7506 60.9724 17.2259 61.0125C12.5584 58.8778 8.4236 55.7474 5.11679 51.8447C2.17024 48.2016 1.08042 48.5219 2.04915 50.8038C2.55797 51.8608 3.12389 52.8899 3.74443 53.8864C7.53559 60.0913 13.1777 64.9739 19.8899 67.8583C26.6563 70.7164 34.1682 71.3478 41.3231 69.6598C42.4532 69.4196 43.6238 69.0993 44.8347 68.779C45.8842 53.9265 37.2867 47.8013 28.6892 38.2732C26.8325 36.9521 26.7518 38.9138 27.0343 40.9155C27.0291 42.6425 27.6939 44.3053 28.891 45.5594C29.858 46.6282 30.8963 47.6313 31.999 48.5619C32.1211 48.6824 32.2052 48.8354 32.2412 49.0023Z" fill="#0097AF"/>
<path fill-rule="evenodd" clip-rule="evenodd" d="M47.9878 29.4788C48.0617 29.5048 48.125 29.5543 48.1684 29.6197C48.2119 29.6851 48.2329 29.7629 48.2285 29.8413C48.9611 34.4921 49.3365 39.1925 49.3515 43.9011C49.3515 45.7945 49.3515 47.9296 49.0708 49.6619C48.8301 54.1336 48.1483 56.1882 48.3488 57.719C48.6697 60.0556 50.3141 59.975 51.7981 55.0199C53.6049 48.6753 54.3238 42.0682 53.9239 35.4813C53.9239 35.4813 54.2848 35.2396 54.5255 36.0051C55.9293 42.9745 52.7206 53.8113 51.2767 60.4988C50.1136 65.1316 53.603 64.5273 55.4881 58.847C58.2022 51.5939 59.4432 43.8684 59.1379 36.1259C59.3045 36.1481 59.4599 36.2223 59.5822 36.3379C59.7045 36.4536 59.7876 36.6049 59.8198 36.7705C60.0248 41.9042 59.5255 47.0418 58.3358 52.0388C57.9347 53.9322 57.4534 55.181 56.932 57.0342C56.4106 58.8873 56.0496 60.1765 57.293 60.0153C58.5363 59.8542 60.1807 57.1148 61.3038 54.6573C62.0184 52.7508 62.5555 50.7818 62.9081 48.7756C64.0384 44.3863 64.4716 39.8452 64.1916 35.3202C64.1916 35.3202 64.1916 35.0382 64.6328 35.5216C65.5954 36.8108 64.6328 46.2779 63.1488 50.7899C61.1032 56.8328 63.1488 56.1479 65.475 50.7899C68.7611 43.8501 69.6539 36.0091 68.0127 28.5033C66.3714 20.9975 62.2895 14.2539 56.4106 9.33594C46.3434 14.1299 43.4155 23.2748 42.8139 32.8628C42.8139 35.3202 42.1722 37.2942 42.0117 39.5099C42.0117 44.1025 45.3808 39.3085 46.4637 37.4151C47.5467 35.5216 47.2258 32.4599 48.0681 29.3579C48.0433 29.3995 48.0165 29.4398 47.9878 29.4788Z" fill="#F7921E"/>
<path fill-rule="evenodd" clip-rule="evenodd" d="M21.6608 26.6218C21.6608 26.6218 21.6608 26.3783 21.8619 26.216C26.1848 22.6901 30.8795 19.6553 35.8611 17.1664C38.5325 15.5985 41.2854 14.1761 44.1077 12.9053L46.3202 11.7285C48.6132 10.511 47.6477 8.76604 42.5791 9.98348C36.0346 11.6413 29.8085 14.3841 24.1549 18.0997C24.1549 18.0997 23.7526 17.8968 24.1549 17.2881C30.4839 12.9646 37.59 9.93174 45.0732 8.36023C54.7278 5.88477 46.642 4.3021 41.6136 5.27605C34.5934 6.47332 27.8873 9.09649 21.9021 12.9865C21.834 12.8325 21.8208 12.6594 21.8648 12.4966C21.9088 12.3339 22.0073 12.1915 22.1435 12.0937C26.5751 9.15113 31.4531 6.95796 36.5852 5.6007C38.5161 4.99198 39.8838 4.82965 41.7745 4.3021C43.6652 3.77454 44.3088 3.40931 44.4295 2.92233C44.5502 2.43536 43.102 1.70489 41.6136 1.70489C39.0981 1.60141 36.5804 1.8472 34.1313 2.43536C32.7635 2.76001 32.2406 2.96292 31.3958 3.2064C26.9706 4.50867 22.7662 6.47887 18.9253 9.05011C18.9253 8.76604 18.6035 9.05011 18.9253 8.52256C23.2379 5.34871 28.177 3.1481 33.4072 2.07012C39.8436 0.852684 38.2747 -0.324174 32.2406 0.0816397C24.4829 0.79918 17.1614 4.02186 11.3638 9.27104C5.5661 14.5202 1.60142 21.5159 0.0585938 29.219C10.8396 36.6048 21.6608 32.425 34.4933 27.9204C38.5161 25.5261 32.3613 24.7145 30.0683 24.7145C27.7753 24.7145 25.1605 25.9319 22.0228 26.703L21.6608 26.6218Z" fill="#00974C"/>
</svg>
