<svg width="180" height="71" viewBox="0 0 180 71" fill="none" xmlns="http://www.w3.org/2000/svg">
<path d="M56.504 9.44727H30.3501C29.0575 9.4463 27.796 9.84357 26.7373 10.585C25.6787 11.3264 24.8743 12.376 24.4337 13.5908L14.2913 41.4192C13.8468 42.6331 13.0392 43.6807 11.9782 44.4196C10.9173 45.1585 9.6544 45.5529 8.36133 45.5491H34.5355C35.8281 45.5501 37.0896 45.1528 38.1483 44.4114C39.207 43.67 40.0113 42.6204 40.4519 41.4056L50.5944 13.5773C51.0385 12.3672 51.8432 11.3224 52.8999 10.5838C53.9567 9.84532 55.2146 9.44862 56.504 9.44727Z" fill="#CDA673"/>
<path d="M22.5567 12.9239C23.1448 11.3376 24.2044 9.96918 25.5932 9.00252C26.982 8.03586 28.6335 7.51727 30.3258 7.51643H32.9358L34.4437 3.37969C34.8044 2.38929 35.4611 1.53377 36.3247 0.929183C37.1883 0.324594 38.2171 0.000198217 39.2715 1.10022e-07H17.9386C16.8833 -0.000218019 15.8535 0.323914 14.9887 0.928466C14.1239 1.53302 13.4659 2.38875 13.104 3.37969L4.82779 26.0845C4.46543 27.0738 3.80831 27.9282 2.94504 28.5325C2.08178 29.1369 1.05389 29.462 0 29.4642H16.5592L22.5567 12.9239Z" fill="#E0CDAF"/>
<path d="M62.9452 30.6399H63.7228C64.219 30.6267 64.7137 30.7022 65.1833 30.863C65.6139 30.9895 66.0126 31.206 66.3531 31.4984C66.6765 31.7927 66.9305 32.1552 67.0968 32.5596C67.2793 33.0102 67.369 33.493 67.3605 33.9791C67.3744 34.477 67.275 34.9716 67.0698 35.4256C66.8837 35.8328 66.6115 36.1949 66.2719 36.4868C65.9408 36.7907 65.549 37.021 65.1225 37.1627C64.6717 37.3155 64.1988 37.3932 63.7228 37.3925H62.9452V38.5484H60.9641V37.379H60.1797C59.6788 37.3879 59.1801 37.3101 58.7057 37.1492C58.284 37.0209 57.8944 36.8043 57.563 36.5138C57.2417 36.2176 56.988 35.8556 56.8192 35.4526C56.6393 35.0012 56.5498 34.519 56.5555 34.0331C56.5447 33.5354 56.6439 33.0415 56.8462 32.5866C57.0376 32.184 57.308 31.8239 57.6414 31.5278C57.9748 31.2317 58.3643 31.0056 58.7868 30.863C59.236 30.714 59.7064 30.6387 60.1797 30.6399H60.9641V29.457H62.9452V30.6399ZM60.2406 32.35C60.0129 32.3227 59.7819 32.3468 59.5648 32.4204C59.3476 32.4941 59.1497 32.6154 58.9856 32.7756C58.8215 32.9358 58.6953 33.1306 58.6165 33.3459C58.5376 33.5612 58.508 33.7914 58.5299 34.0196C58.5128 34.2427 58.5451 34.4668 58.6246 34.6759C58.7041 34.8851 58.8287 35.0741 58.9897 35.2295C59.3361 35.5275 59.7843 35.68 60.2406 35.6554H60.9573V32.35H60.2406ZM63.6214 35.6689C63.8492 35.6938 64.0797 35.6679 64.2963 35.5929C64.5128 35.518 64.71 35.396 64.8737 35.2356C65.0374 35.0752 65.1634 34.8805 65.2426 34.6656C65.3219 34.4506 65.3524 34.2208 65.3321 33.9926C65.3433 33.7717 65.3089 33.5508 65.231 33.3438C65.1531 33.1368 65.0332 32.948 64.879 32.7894C64.5292 32.4929 64.0795 32.3406 63.6214 32.3636H62.9046V35.6689H63.6214Z" fill="#414042"/>
<path d="M75.352 29.8035C75.9047 30.0249 76.4073 30.355 76.8301 30.7741C77.2529 31.1933 77.5872 31.693 77.8132 32.2437C78.0435 32.8316 78.1605 33.4576 78.1581 34.089C78.1594 34.7027 78.0423 35.3109 77.8132 35.8802C77.5882 36.4343 77.2575 36.9394 76.8396 37.3673C76.4136 37.7893 75.9079 38.1225 75.352 38.3474C74.7452 38.6052 74.0909 38.7319 73.4317 38.7192C72.7821 38.7273 72.137 38.6103 71.5317 38.3744C70.9766 38.1478 70.4713 37.8148 70.0441 37.3943C69.619 36.9893 69.2848 36.4985 69.0637 35.9546C68.8321 35.3718 68.715 34.7499 68.7189 34.1228C68.7147 33.5044 68.8319 32.8913 69.0637 32.318C69.278 31.7607 69.6128 31.2575 70.0441 30.8445C70.9498 29.9675 72.1641 29.4819 73.4249 29.4926C74.0812 29.4727 74.7353 29.5782 75.352 29.8035ZM72.2755 31.4596C71.9515 31.6027 71.6613 31.8123 71.4235 32.0747C71.1798 32.3313 70.9951 32.6382 70.8826 32.9737C70.7563 33.3319 70.6923 33.7091 70.6932 34.089C70.6934 34.4731 70.7573 34.8546 70.8826 35.2178C70.9951 35.5533 71.1798 35.8601 71.4235 36.1168C71.6726 36.3723 71.9658 36.5807 72.289 36.7319C72.6536 36.8718 73.0411 36.9428 73.4317 36.9414C73.8282 36.9452 74.2213 36.8694 74.5879 36.7184C74.9224 36.5773 75.2206 36.3624 75.4602 36.0898C75.6902 35.8241 75.8711 35.5197 75.9943 35.1908C76.103 34.8334 76.1599 34.4624 76.1634 34.089C76.1643 33.7053 76.1027 33.324 75.9808 32.9602C75.8694 32.6286 75.6913 32.3232 75.4576 32.0629C75.2239 31.8025 74.9395 31.5926 74.6217 31.4461C73.8779 31.1577 73.0531 31.1577 72.3093 31.4461L72.2755 31.4596Z" fill="#414042"/>
<path d="M81.8351 33.1217H85.7231V29.6406H87.7515V38.536H85.7231V34.967H81.8351V38.536H79.8066V29.6406H81.8351V33.1217Z" fill="#414042"/>
<path d="M98.1378 36.7447H99.4225V37.3058L99.2534 40.4151H97.4616L97.3805 38.5562H91.3626L91.2612 40.4151H89.4558L89.3477 37.3058V36.765H89.7195C89.9214 36.7592 90.116 36.688 90.274 36.5622C90.4841 36.4021 90.6456 36.1868 90.7405 35.9404C91.0074 35.2919 91.1826 34.6094 91.2612 33.9126C91.3687 32.986 91.4207 32.0537 91.4167 31.1209V29.6406H98.1378V36.7447ZM93.1409 34.6426C93.0419 35.3693 92.8369 36.0775 92.5324 36.7447H96.1431V31.4183H93.3843C93.3854 32.4977 93.304 33.5756 93.1409 34.6426Z" fill="#414042"/>
<path d="M64.6874 54.4618H62.6589V47.4455H58.8859V54.4956H56.8574V45.5664H64.64L64.6874 54.4618Z" fill="#414042"/>
<path d="M72.173 45.8084C72.5868 45.9454 72.9703 46.1611 73.3022 46.4437C73.6079 46.7265 73.8519 47.0694 74.0189 47.4509C74.3773 48.3165 74.3773 49.289 74.0189 50.1546C73.8377 50.5476 73.5667 50.8926 73.2278 51.1618C72.8927 51.4618 72.4921 51.6794 72.058 51.7972C71.588 51.9571 71.0939 52.0348 70.5975 52.027H68.7922V54.4536H66.7637V45.565H70.7192C71.2146 45.5567 71.7073 45.6392 72.173 45.8084ZM70.5637 50.2628C71.0125 50.2891 71.4553 50.1496 71.8078 49.8707C71.9588 49.7368 72.0779 49.5707 72.1562 49.3847C72.2346 49.1988 72.2704 48.9976 72.2609 48.796C72.2716 48.6022 72.2416 48.4082 72.1729 48.2266C72.1042 48.045 71.9983 47.8798 71.8619 47.7415C71.5232 47.4566 71.0862 47.3158 70.6448 47.3495H68.7583V50.2628H70.5637Z" fill="#414042"/>
<path d="M82.599 47.3576H77.9132V49.034H82.0919V50.7711H77.9132V52.6705H82.8222V54.4618H75.9727V45.5664H82.6261L82.599 47.3576Z" fill="#414042"/>
<path d="M88.9845 48.7965C89.0726 48.718 89.142 48.6209 89.1876 48.5121C89.2332 48.4033 89.2539 48.2857 89.2482 48.1679C89.2578 48.0231 89.2313 47.8781 89.1711 47.746C89.1109 47.6139 89.0189 47.4988 88.9034 47.4109C88.5575 47.2042 88.1553 47.1119 87.7539 47.1472C86.9014 47.1523 86.0761 47.448 85.4144 47.9854L84.3798 46.6335C84.8504 46.2175 85.3968 45.8962 85.9891 45.6872C86.5939 45.4802 87.2296 45.3773 87.8688 45.383C88.3483 45.3787 88.826 45.4401 89.2888 45.5655C89.6728 45.6746 90.0345 45.8508 90.3571 46.086C90.6338 46.2984 90.8639 46.5652 91.0333 46.8701C91.1803 47.1903 91.2564 47.5385 91.2564 47.8908C91.2607 48.2435 91.1844 48.5926 91.0333 48.9114C90.8856 49.2166 90.6502 49.4708 90.3571 49.6415V49.7631C90.7544 49.8938 91.1016 50.1441 91.3511 50.4796C91.5962 50.8523 91.7212 51.291 91.7094 51.7369C91.7145 52.1368 91.6266 52.5325 91.4525 52.8927C91.2945 53.2544 91.048 53.5705 90.7358 53.812C90.37 54.0863 89.9577 54.2924 89.5187 54.4203C88.9718 54.5787 88.4043 54.6539 87.835 54.6434C87.4664 54.6437 87.0982 54.6188 86.7329 54.569C86.3962 54.53 86.065 54.4529 85.7457 54.3392C85.436 54.2352 85.1389 54.0969 84.8599 53.9269C84.5609 53.7577 84.2799 53.5584 84.0215 53.3321L85.0695 51.8721C85.475 52.2012 85.9319 52.4616 86.4219 52.6426C86.9166 52.7957 87.4321 52.8709 87.95 52.8657C88.4098 52.9009 88.869 52.7897 89.2617 52.548C89.3967 52.4499 89.506 52.3205 89.5802 52.1711C89.6544 52.0216 89.6913 51.8564 89.6877 51.6895C89.6877 51.0609 89.2888 50.7568 88.4842 50.7568H86.2393V49.0331H88.2678C88.5267 49.0382 88.7796 48.9548 88.9845 48.7965Z" fill="#414042"/>
<path d="M95.2665 51.5011L99.5668 45.5799H101.318V54.4753H99.3437V48.8853L95.2529 54.4753H93.2988V45.5664H95.2665V51.5011Z" fill="#414042"/>
<path d="M111.727 52.6689H113.012V53.2096L112.843 56.3189H111.051L110.97 54.4601H104.952L104.851 56.3189H103.018L102.91 53.2231V52.6824H103.282C103.484 52.6766 103.679 52.6054 103.837 52.4796C104.047 52.3195 104.208 52.1042 104.303 51.8577C104.571 51.2095 104.746 50.5269 104.824 49.8299C104.931 48.9033 104.983 47.9711 104.979 47.0383V45.5918H111.7L111.727 52.6689ZM106.73 50.5735C106.631 51.2978 106.426 52.0037 106.122 52.6689H109.733V47.3492H106.974C106.974 48.4286 106.893 49.5064 106.73 50.5735Z" fill="#414042"/>
<path d="M121.275 47.3576H116.589V49.034H120.774V50.7711H116.589V52.6705H121.505V54.4618H114.635V45.5664H121.275V47.3576Z" fill="#414042"/>
<path d="M125.265 49.0475H129.16V45.5664H131.188V54.4618H129.16V50.8928H125.265V54.4618H123.236V45.5664H125.265V49.0475Z" fill="#414042"/>
<path d="M140.829 47.3712H137.787V54.4618H135.805V47.3712H132.77V45.5664H140.829V47.3712Z" fill="#414042"/>
<path d="M147.795 47.4443C147.362 47.285 146.903 47.2093 146.442 47.2213C146.039 47.217 145.639 47.2834 145.259 47.4173C144.928 47.5528 144.627 47.7527 144.373 48.0054C144.124 48.2639 143.928 48.5695 143.799 48.9044C143.666 49.2657 143.599 49.6482 143.602 50.0332C143.598 50.4271 143.665 50.8186 143.799 51.189C143.932 51.5195 144.132 51.8187 144.387 52.0678C144.642 52.3169 144.943 52.5143 145.273 52.6491C145.638 52.7851 146.025 52.8516 146.415 52.8451C146.9 52.8463 147.38 52.7616 147.835 52.595C148.268 52.4157 148.664 52.1591 149.005 51.8379L150.134 53.2304C149.363 53.903 148.428 54.3603 147.424 54.5561C146.419 54.752 145.381 54.6794 144.414 54.3457C143.857 54.15 143.349 53.8351 142.926 53.423C142.504 53.0109 142.176 52.5114 141.966 51.9596C141.733 51.3538 141.616 50.7094 141.621 50.0602C141.615 49.4417 141.733 48.8282 141.966 48.2555C142.181 47.6962 142.513 47.1892 142.94 46.7684C143.379 46.3339 143.904 45.9955 144.481 45.7748C145.126 45.5183 145.816 45.3919 146.51 45.403C147.157 45.3967 147.8 45.5042 148.41 45.7207C148.975 45.9204 149.497 46.2281 149.945 46.6265L148.843 48.073C148.543 47.7904 148.185 47.5759 147.795 47.4443Z" fill="#414042"/>
<path d="M153.73 48.9529L154.697 48.8447L157.206 45.5664H159.667L156.361 49.7234L159.985 54.455H157.422L154.718 50.6562H153.73V54.455H151.77V45.5664H153.73V48.9529Z" fill="#414042"/>
<path d="M163.374 51.5011L167.675 45.5799H169.426V54.4753H167.445V48.8853L163.388 54.4753H161.434V45.5664H163.401L163.374 51.5011Z" fill="#414042"/>
<path d="M175.368 48.7433H175.497L177.262 45.5664H179.723L176.876 49.9465L180 54.4618H177.397L175.402 51.0347H175.274L173.34 54.4618H170.777L173.901 49.8451L171.061 45.5664H173.543L175.368 48.7433Z" fill="#414042"/>
<path d="M63.6405 63.2989H58.9074V70.3827H56.8789V61.4941H63.6405V63.2989Z" fill="#414042"/>
<path d="M70.5636 61.7314C70.976 61.8717 71.3588 62.0871 71.6928 62.3667C71.9944 62.6531 72.2378 62.9951 72.4095 63.3739C72.7592 64.2412 72.7592 65.2103 72.4095 66.0776C72.2236 66.4696 71.9507 66.8141 71.6116 67.0848C71.2766 67.3848 70.876 67.6024 70.4419 67.7202C69.9721 67.8812 69.4779 67.9589 68.9814 67.95H67.1828V70.3766H65.1543V61.4948H69.1098C69.6047 61.4861 70.0971 61.5662 70.5636 61.7314ZM68.9543 66.1926C69.4062 66.218 69.8515 66.076 70.2052 65.7937C70.3562 65.6598 70.4752 65.4937 70.5536 65.3077C70.632 65.1218 70.6678 64.9206 70.6582 64.719C70.668 64.5263 70.6376 64.3336 70.5689 64.1533C70.5002 63.9729 70.3948 63.8088 70.2593 63.6713C70.0919 63.5272 69.8975 63.4178 69.6874 63.3493C69.4773 63.2808 69.2557 63.2547 69.0355 63.2725H67.1828V66.1926H68.9543Z" fill="#414042"/>
<path d="M82.7966 70.3845H80.5924L79.9162 68.6203H76.1094L75.4332 70.3845H73.2695L76.914 61.4824H79.1048L82.7966 70.3845ZM79.2671 66.8697L78.0838 63.49H77.9553L76.7585 66.8697H79.2671Z" fill="#414042"/>
<path d="M86.3468 64.9685H90.2348V61.4941H92.2633V70.3827H90.2348V66.8138H86.3468V70.3827H84.3184V61.4941H86.3468V64.9685Z" fill="#414042"/>
<path d="M101.904 63.2989H98.8609V70.3827H96.8797V63.2989H93.8438V61.4941H101.904V63.2989Z" fill="#414042"/>
<path d="M109.351 61.6371C109.909 61.8578 110.416 62.1915 110.839 62.6172C111.261 63.0301 111.59 63.5277 111.806 64.0772C112.039 64.6643 112.156 65.291 112.15 65.9225C112.159 66.5384 112.044 67.1497 111.812 67.7205C111.594 68.2764 111.265 68.7823 110.845 69.2076C110.418 69.6295 109.913 69.9646 109.358 70.1945C108.75 70.4469 108.096 70.5711 107.438 70.5595C106.788 70.5683 106.143 70.4512 105.538 70.2148C104.982 69.9899 104.476 69.6567 104.05 69.2347C103.619 68.8216 103.284 68.3184 103.07 67.7611C102.837 67.1785 102.72 66.5564 102.725 65.9293C102.722 65.3111 102.839 64.6983 103.07 64.1245C103.286 63.5685 103.621 63.0659 104.05 62.651C104.956 61.7741 106.17 61.2885 107.431 61.2991C108.086 61.2921 108.737 61.4067 109.351 61.6371ZM106.275 63.2999C105.952 63.4427 105.661 63.6501 105.422 63.9093C105.182 64.1686 104.998 64.4742 104.882 64.8073C104.755 65.1655 104.691 65.5427 104.692 65.9225C104.692 66.3067 104.756 66.6882 104.882 67.0514C104.996 67.3882 105.18 67.697 105.423 67.9571C105.672 68.21 105.966 68.416 106.288 68.5655C106.652 68.7085 107.04 68.7797 107.431 68.775C107.825 68.7827 108.217 68.7067 108.58 68.5519C108.915 68.4109 109.215 68.1987 109.459 67.9301C109.688 67.6623 109.867 67.3555 109.987 67.0243C110.101 66.6681 110.16 66.2966 110.163 65.9225C110.164 65.5383 110.1 65.1565 109.973 64.7937C109.864 64.4526 109.679 64.1407 109.432 63.8812C109.195 63.6235 108.904 63.4205 108.58 63.2864C107.841 62.989 107.014 62.989 106.275 63.2864V63.2999Z" fill="#414042"/>
<path d="M120.036 62.1448C120.425 62.4782 120.693 62.9306 120.798 63.4317C120.903 63.9328 120.84 64.4546 120.618 64.9161C120.48 65.2011 120.258 65.437 119.982 65.592V65.6934C120.404 65.8258 120.769 66.0975 121.017 66.464C121.284 66.8329 121.425 67.2791 121.416 67.7348C121.414 68.088 121.35 68.4382 121.226 68.769C121.096 69.0946 120.887 69.3826 120.618 69.6071C120.319 69.8647 119.972 70.06 119.597 70.1817C119.12 70.3323 118.622 70.4031 118.123 70.3912H113.836V61.4959H117.764C118.574 61.4426 119.377 61.6719 120.036 62.1448ZM117.832 65.0175C118.117 65.0304 118.398 64.947 118.63 64.7809C118.721 64.6939 118.793 64.5888 118.84 64.4724C118.888 64.3559 118.911 64.2308 118.907 64.105C118.907 63.5101 118.522 63.2195 117.764 63.2195H115.797V65.0175H117.832ZM118.15 68.7081C119.029 68.7081 119.462 68.3634 119.462 67.6604C119.472 67.5154 119.446 67.3701 119.386 67.2377C119.326 67.1054 119.233 66.9904 119.117 66.9034C118.832 66.7009 118.485 66.6052 118.136 66.633H115.797V68.7081H118.15Z" fill="#414042"/>
</svg>
