<svg width="179" height="67" viewBox="0 0 179 67" fill="none" xmlns="http://www.w3.org/2000/svg">
<path d="M115.097 21.2168C111.078 21.2168 107.816 24.4779 107.816 28.4975C107.816 32.517 111.078 35.7781 115.097 35.7781C119.117 35.7781 122.403 32.517 122.403 28.4975C122.403 24.4779 119.142 21.2168 115.097 21.2168ZM115.097 32.2895C113.024 32.2895 111.33 30.5957 111.33 28.5227C111.33 26.4245 113.024 24.756 115.097 24.756C117.195 24.756 118.864 26.4498 118.864 28.5227C118.889 30.5957 117.195 32.2895 115.097 32.2895Z" fill="black"/>
<path d="M90.8558 23.1118V35.6002H87.3672V16.5137H90.8558L96.7714 25.842C96.8472 25.9432 96.8978 25.9432 96.9736 25.842L102.813 16.5137H106.327V35.6002H104.532C103.597 35.6002 102.839 34.8418 102.839 33.9064V23.1118L98.1112 30.443H95.7096L90.8558 23.1118Z" fill="black"/>
<path d="M134.463 23.9964C135.323 24.502 136.006 25.2351 136.461 26.1705C136.916 27.1059 137.168 28.1676 137.168 29.4064C137.168 30.6704 136.89 31.7827 136.334 32.7433C135.778 33.704 134.994 34.4624 134.008 34.9933C132.997 35.5241 131.885 35.8022 130.621 35.8022C128.523 35.8022 126.879 35.0691 125.666 33.5776C124.478 32.1113 123.871 29.9372 123.871 27.0806C123.871 24.4262 124.402 22.3279 125.438 20.7353C126.5 19.1679 128.093 18.1314 130.292 17.6258L135.424 16.5135C135.753 16.4377 136.056 16.6905 136.132 17.0444V17.0949C136.334 18.5359 135.475 19.901 134.16 20.1791L131.43 20.7858C130.065 21.0892 129.028 21.5695 128.371 22.2521C127.714 22.9346 127.309 23.9206 127.208 25.1593C127.739 24.5273 128.346 24.0723 129.079 23.7183C129.812 23.3897 130.596 23.2127 131.48 23.2127C132.593 23.238 133.604 23.4908 134.463 23.9964ZM132.77 31.8838C133.326 31.2518 133.579 30.4428 133.579 29.4569C133.579 28.471 133.301 27.662 132.77 27.0806C132.214 26.4991 131.506 26.1958 130.621 26.1958C129.711 26.1958 128.978 26.4991 128.422 27.0806C127.865 27.662 127.587 28.471 127.587 29.4569C127.587 30.4428 127.865 31.2771 128.447 31.8838C129.003 32.5158 129.736 32.8192 130.621 32.8192C131.506 32.8445 132.239 32.5158 132.77 31.8838Z" fill="black"/>
<path d="M150.844 21.7987V35.6017H150.363H148.012H147.557V34.0596C147.102 34.641 146.571 35.0708 145.914 35.3489C145.282 35.6522 144.574 35.7786 143.866 35.7786C142.299 35.7786 141.06 35.273 140.125 34.2871C139.189 33.3012 138.734 31.8096 138.734 29.8631V22.3043V21.7734H140.428C141.389 21.7734 142.172 22.633 142.172 23.72V29.3069C142.172 31.4304 142.981 32.4922 144.599 32.4922C145.434 32.4922 146.116 32.1888 146.622 31.6074C147.127 31.0007 147.38 30.1159 147.38 28.953V21.7987H147.861H150.363H150.844Z" fill="black"/>
<path d="M164.447 21.7987H165.028V32.8208C165.028 35.2225 164.472 36.537 163.36 37.6999C162.248 38.8628 160.63 39.4695 158.531 39.4695C157.419 39.4695 156.357 39.3178 155.346 39.0145C154.562 38.7617 153.855 38.4583 153.248 38.0791C152.995 37.9274 152.768 37.7252 152.768 37.7252L154.335 35.0961C154.335 35.0961 154.411 35.1213 154.689 35.3236C155.093 35.6017 155.523 35.8292 156.029 36.0061C156.762 36.2589 157.495 36.3853 158.228 36.3853C159.391 36.3853 160.225 36.082 160.756 35.5005C161.287 34.9191 161.565 34.5146 161.565 33.3012V32.8714C161.11 33.3517 160.604 33.7309 159.998 33.9837C159.391 34.2365 158.734 34.3629 158.051 34.3629C156.484 34.3629 155.245 33.8573 154.335 32.8714C153.425 31.8855 152.97 30.394 152.97 28.4221V22.4054V21.7734H154.588C155.599 21.7734 156.433 22.6835 156.433 23.8211V27.8912C156.433 30.0148 157.242 31.1018 158.86 31.1018C159.694 31.1018 160.352 30.7984 160.857 30.217C161.363 29.6103 161.616 28.7255 161.616 27.5626V21.7987H162.197H164.447Z" fill="black"/>
<path d="M178.15 31.9848L176.405 30.923C176.405 30.923 176.38 30.923 176.38 30.8977L175.9 30.6196L175.773 30.8472C175.647 31.0747 175.52 31.2769 175.369 31.4792C174.787 32.1617 174.054 32.4904 173.169 32.4904C172.234 32.4904 171.476 32.1617 170.869 31.4792C170.262 30.7966 169.959 29.8865 169.959 28.7489C169.959 27.586 170.262 26.6759 170.869 26.0187C171.476 25.3614 172.234 25.0074 173.169 25.0074C173.978 25.0074 174.661 25.2855 175.217 25.867C175.47 26.1198 175.647 26.3979 175.799 26.7265L175.874 26.8782L176.38 26.5748C176.81 26.322 177.695 25.7911 178.124 25.5383L178.68 25.2097C178.68 25.2097 178.453 24.7546 178.352 24.603C177.922 23.794 177.315 23.1367 176.532 22.6817C175.571 22.075 174.459 21.7969 173.169 21.7969C171.855 21.7969 170.692 22.1002 169.655 22.6817C168.619 23.2884 167.81 24.0974 167.229 25.1591C166.647 26.2209 166.344 27.4091 166.344 28.7489C166.344 30.0888 166.647 31.2769 167.229 32.3387C167.81 33.4004 168.619 34.2094 169.655 34.8161C170.692 35.4229 171.855 35.7009 173.169 35.7009C174.459 35.7009 175.571 35.3976 176.532 34.7909C177.29 34.3105 177.897 33.6785 178.327 32.8948C178.402 32.7432 178.655 32.3134 178.655 32.3134L178.15 31.9848Z" fill="black"/>
<path d="M87.3672 43.7397H90.3502V49.5541H92.1704V43.7397H95.1535V42.2734H87.3672V43.7397Z" fill="black"/>
<path d="M102.232 42.6542C101.65 42.3508 100.968 42.1738 100.209 42.1738C99.4254 42.1738 98.7429 42.3255 98.1361 42.6542C97.5294 42.9828 97.0491 43.4126 96.7204 43.9687C96.3665 44.5249 96.2148 45.1569 96.2148 45.89C96.2148 46.6231 96.3918 47.2551 96.7457 47.8113C97.0996 48.3675 97.6052 48.8225 98.2373 49.1259C98.8945 49.4545 99.6277 49.6062 100.487 49.6062C101.17 49.6062 101.776 49.5051 102.307 49.3028C102.838 49.1006 103.268 48.8225 103.647 48.4433L102.661 47.3815C102.383 47.6343 102.08 47.8366 101.726 47.9883C101.372 48.1147 100.993 48.1905 100.538 48.1905C100.032 48.1905 99.5771 48.0894 99.1726 47.9124C98.7934 47.7355 98.4901 47.4574 98.2878 47.1287C98.1614 46.9265 98.0603 46.6737 98.035 46.4462H104.128C104.128 46.3703 104.153 46.2945 104.153 46.1934C104.153 46.0922 104.153 46.0164 104.153 45.9658C104.153 45.1822 103.976 44.5249 103.647 43.9687C103.268 43.4126 102.813 42.9828 102.232 42.6542ZM98.2373 44.6007C98.4142 44.2721 98.6923 44.0193 99.0209 43.8423C99.3749 43.6654 99.7541 43.5642 100.184 43.5642C100.639 43.5642 101.018 43.6654 101.347 43.8423C101.675 44.0193 101.928 44.2721 102.13 44.6007C102.257 44.8282 102.333 45.081 102.383 45.3338H97.9845C98.035 45.0558 98.1109 44.8282 98.2373 44.6007Z" fill="black"/>
<path d="M113 42.2734H111.029L109.133 44.6498L107.237 42.2734H105.189L108.096 45.8379L105.062 49.5541H107.085L109.107 47.0514L111.079 49.5541H113.152L110.093 45.8379L113 42.2734Z" fill="black"/>
<path d="M120.534 45.2312H116.615V42.2734H114.82V49.5541H116.615V46.6722H120.534V49.5541H122.354V42.2734H120.534V45.2312Z" fill="black"/>
<path d="M129.963 42.6776C129.331 42.3489 128.623 42.1973 127.814 42.1973C127.03 42.1973 126.322 42.3489 125.69 42.6776C125.058 43.0062 124.578 43.436 124.224 43.9922C123.87 44.5483 123.693 45.1803 123.693 45.9134C123.693 46.6213 123.87 47.2786 124.224 47.8347C124.578 48.3909 125.084 48.8459 125.69 49.1493C126.322 49.4779 127.03 49.6296 127.814 49.6296C128.598 49.6296 129.331 49.4779 129.963 49.1493C130.595 48.8207 131.075 48.3909 131.429 47.8347C131.783 47.2786 131.96 46.6466 131.96 45.9134C131.96 45.1803 131.783 44.523 131.429 43.9922C131.075 43.436 130.595 43.0062 129.963 42.6776ZM129.836 47.1269C129.634 47.4808 129.356 47.7336 129.002 47.9359C128.648 48.1128 128.244 48.2139 127.814 48.2139C127.384 48.2139 127.005 48.1128 126.651 47.9359C126.297 47.7589 126.019 47.4808 125.817 47.1269C125.615 46.773 125.514 46.3685 125.514 45.9134C125.514 45.4584 125.615 45.0539 125.817 44.7C126.019 44.3714 126.297 44.0933 126.651 43.9163C127.005 43.7394 127.384 43.6382 127.839 43.6382C128.269 43.6382 128.674 43.7394 129.027 43.9163C129.381 44.0933 129.659 44.3714 129.862 44.7C130.064 45.0286 130.165 45.4331 130.165 45.9134C130.14 46.3685 130.039 46.773 129.836 47.1269Z" fill="black"/>
<path d="M135.02 45.0792C134.994 45.4584 134.969 45.8123 134.944 46.1915C134.918 46.5707 134.868 46.8994 134.767 47.1774C134.691 47.4555 134.565 47.7083 134.388 47.8853C134.211 48.0623 133.933 48.1634 133.68 48.1381C133.604 48.1381 133.402 48.1128 133.326 48.0875L133.25 49.5032C133.427 49.5538 133.604 49.5791 133.781 49.6043C133.958 49.6296 134.11 49.6549 134.261 49.6549C134.716 49.6549 135.095 49.5285 135.399 49.301C135.702 49.0735 135.93 48.7448 136.107 48.3656C136.284 47.9611 136.41 47.4808 136.486 46.9246C136.562 46.3685 136.612 45.787 136.638 45.1298L136.713 43.6635H139.621V49.4779H141.441V42.1973H135.146L135.02 45.0792Z" fill="black"/>
<path d="M149.303 42.6776C148.671 42.3489 147.963 42.1973 147.154 42.1973C146.37 42.1973 145.662 42.3489 145.03 42.6776C144.398 43.0062 143.918 43.436 143.564 43.9922C143.21 44.5483 143.033 45.1803 143.033 45.9134C143.033 46.6213 143.21 47.2786 143.564 47.8347C143.918 48.3909 144.424 48.8459 145.03 49.1493C145.662 49.4779 146.37 49.6296 147.154 49.6296C147.938 49.6296 148.671 49.4779 149.303 49.1493C149.935 48.8207 150.415 48.3909 150.769 47.8347C151.123 47.2786 151.3 46.6466 151.3 45.9134C151.3 45.1803 151.123 44.523 150.769 43.9922C150.44 43.436 149.935 43.0062 149.303 42.6776ZM149.176 47.1269C148.974 47.4808 148.696 47.7336 148.342 47.9359C147.988 48.1128 147.584 48.2139 147.154 48.2139C146.724 48.2139 146.345 48.1128 145.991 47.9359C145.637 47.7589 145.359 47.4808 145.157 47.1269C144.954 46.773 144.853 46.3685 144.853 45.9134C144.853 45.4584 144.954 45.0539 145.157 44.7C145.359 44.3714 145.637 44.0933 145.991 43.9163C146.345 43.7394 146.724 43.6382 147.179 43.6382C147.609 43.6382 148.013 43.7394 148.367 43.9163C148.721 44.0933 148.999 44.3714 149.202 44.7C149.404 45.0286 149.505 45.4331 149.505 45.9134C149.48 46.3685 149.379 46.773 149.176 47.1269Z" fill="black"/>
<path d="M153.223 49.5541H155.018V43.7144H159.163V42.2734H153.223V49.5541Z" fill="black"/>
<path d="M162.676 47.0767V42.2734H160.881V49.5541H162.549L166.796 44.7509V49.5541H168.617V42.2734H166.948L162.676 47.0767Z" fill="black"/>
<path d="M177.036 42.2734L172.764 47.0767V42.2734H170.969V49.5541H172.637L176.91 44.7509V49.5541H178.704V42.2734H177.036Z" fill="black"/>
<mask id="mask0_3_19502" style="mask-type:luminance" maskUnits="userSpaceOnUse" x="35" y="16" width="36" height="18">
<path d="M35.416 16.5077V33.0156H70.8587V19.4908C70.8587 17.8223 69.5189 16.4824 67.8504 16.4824H35.416V16.5077Z" fill="white"/>
</mask>
<g mask="url(#mask0_3_19502)">
<path d="M70.8587 16.5078H35.416V33.041H70.8587V16.5078Z" fill="url(#paint0_linear_3_19502)"/>
</g>
<mask id="mask1_3_19502" style="mask-type:luminance" maskUnits="userSpaceOnUse" x="35" y="33" width="36" height="34">
<path d="M39.6942 47.5575C37.6971 48.4676 35.4219 47.0267 35.4219 44.8273V63.0795C35.4219 65.2789 37.7224 66.7452 39.7195 65.8098L69.1203 52.0827C70.182 51.5771 70.8393 50.5153 70.8393 49.3524V33.0215L39.6942 47.5575Z" fill="white"/>
</mask>
<g mask="url(#mask1_3_19502)">
<path d="M83.0221 61.5402L40.8801 79.5144L23.2852 38.2067L65.4018 20.2578L83.0221 61.5402Z" fill="url(#paint1_linear_3_19502)"/>
</g>
<mask id="mask2_3_19502" style="mask-type:luminance" maskUnits="userSpaceOnUse" x="0" y="0" width="36" height="34">
<path d="M31.1471 0.281898L1.721 14.009C0.659235 14.5146 0.00195312 15.5764 0.00195312 16.7393V33.0196L31.1723 18.5341C33.1695 17.6241 35.4194 19.0903 35.4194 21.2644V3.01215C35.4194 1.26782 34.0037 0.00381769 32.4111 0.00381769C32.0066 -0.0214624 31.5768 0.0796576 31.1471 0.281898Z" fill="white"/>
</mask>
<g mask="url(#mask2_3_19502)">
<path d="M-12.334 5.51566L29.5046 -13.2422L47.7568 27.5094L5.94354 46.2672L-12.334 5.51566Z" fill="url(#paint2_linear_3_19502)"/>
</g>
<mask id="mask3_3_19502" style="mask-type:luminance" maskUnits="userSpaceOnUse" x="0" y="33" width="36" height="17">
<path d="M0 33.0156V46.5405C0 48.209 1.33984 49.5488 3.00833 49.5488H35.4174V33.0156H0Z" fill="white"/>
</mask>
<g mask="url(#mask3_3_19502)">
<path d="M35.4174 33.0156H0V49.5235H35.4174V33.0156Z" fill="url(#paint3_linear_3_19502)"/>
</g>
<defs>
<linearGradient id="paint0_linear_3_19502" x1="35.834" y1="24.7673" x2="70.4104" y2="24.7673" gradientUnits="userSpaceOnUse">
<stop stop-color="#1E2391"/>
<stop offset="1" stop-color="#0047E6"/>
</linearGradient>
<linearGradient id="paint1_linear_3_19502" x1="69.6573" y1="42.8391" x2="36.7113" y2="56.8858" gradientUnits="userSpaceOnUse">
<stop stop-color="#1E2391"/>
<stop offset="0.00353669" stop-color="#1E2391"/>
<stop offset="1" stop-color="#0047E6"/>
</linearGradient>
<linearGradient id="paint2_linear_3_19502" x1="1.1042" y1="23.9523" x2="34.8071" y2="8.84398" gradientUnits="userSpaceOnUse">
<stop stop-color="#1E2391"/>
<stop offset="1" stop-color="#0047E6"/>
</linearGradient>
<linearGradient id="paint3_linear_3_19502" x1="34.2975" y1="41.2844" x2="1.60325" y2="41.2844" gradientUnits="userSpaceOnUse">
<stop stop-color="#1E2391"/>
<stop offset="1" stop-color="#0047E6"/>
</linearGradient>
</defs>
</svg>
