<svg width="242" height="69" viewBox="0 0 242 69" fill="none" xmlns="http://www.w3.org/2000/svg">
<path d="M38.4825 2.71875L0.978516 67.7257H75.7691V2.71875H38.4825Z" fill="#08C6D2"/>
<path d="M76.3125 68.2678H0L38.2649 2.17383H76.3125V68.2678ZM1.84802 67.1807H75.2254V3.2609H38.8085L1.84802 67.1807Z" fill="#08C6D2"/>
<path d="M233.83 67.8331H235.896L239.7 60.5498H239.918V67.8331H241.331V58.3756H239.265L235.461 65.659H235.243V58.3756H233.83V67.8331ZM225.568 67.8331H226.982V59.7888H229.917V58.4843H222.633V59.7888H225.568V67.8331ZM215.132 67.9419C217.741 67.9419 219.046 66.0938 219.372 64.5719H217.85C217.524 65.5503 216.654 66.6374 215.132 66.6374C213.393 66.6374 212.089 65.3329 212.089 63.1587C212.089 60.9846 213.393 59.6801 215.132 59.6801C216.328 59.6801 217.415 60.3323 217.85 61.6368H219.372C218.937 60.0062 217.524 58.3756 215.132 58.3756C212.632 58.3756 210.675 60.3323 210.675 63.2674C210.675 66.2025 212.741 67.9419 215.132 67.9419ZM202.305 66.6374C200.566 66.6374 199.261 65.3329 199.261 63.1587C199.261 60.9846 200.566 59.6801 202.305 59.6801C204.044 59.6801 205.349 60.9846 205.349 63.1587C205.349 65.3329 204.044 66.6374 202.305 66.6374ZM202.305 67.9419C204.805 67.9419 206.762 65.9851 206.762 63.05C206.762 60.1149 204.697 58.1582 202.305 58.1582C199.805 58.1582 197.848 60.1149 197.848 63.05C197.848 65.9851 199.805 67.9419 202.305 67.9419ZM185.89 67.8331H187.303V63.7023H192.087V67.8331H193.5V58.3756H192.087V62.2891H187.303V58.3756H185.89V67.8331ZM177.52 67.8331H178.933V59.7888H181.868V58.4843H174.585V59.7888H177.52V67.8331ZM162.953 67.8331H164.366V63.7023H169.149V67.8331H170.563V58.3756H169.149V62.2891H164.366V58.3756H162.953V67.8331ZM153.061 64.3545L154.583 60.0062H154.8L156.322 64.3545H153.061ZM150.234 67.8331H151.756L152.517 65.659H156.865L157.626 67.8331H159.148L155.67 58.3756H153.495L150.234 67.8331ZM142.19 63.1587V59.7888H144.908C145.669 59.7888 146.321 60.4411 146.321 61.4194C146.321 62.3978 145.669 63.05 144.908 63.05H142.19V63.1587ZM140.777 67.8331H142.19V64.4632H145.016C146.538 64.4632 147.734 63.2674 147.734 61.4194C147.734 59.5714 146.538 58.3756 145.016 58.3756H140.777V67.8331ZM130.123 67.8331H136.32V66.5287H131.537V63.811H135.994V62.5065H131.537V59.7888H136.32V58.4843H130.123V67.8331ZM117.296 67.9419H117.948C119.361 67.9419 120.122 67.1809 120.231 65.659L120.666 59.7888H124.036V67.8331H125.449V58.3756H119.361L118.818 65.3329C118.709 66.0938 118.383 66.4199 117.84 66.4199H117.405V67.9419H117.296ZM109.686 66.6374C107.947 66.6374 106.643 65.3329 106.643 63.1587C106.643 60.9846 107.947 59.6801 109.686 59.6801C111.426 59.6801 112.73 60.9846 112.73 63.1587C112.73 65.3329 111.426 66.6374 109.686 66.6374ZM109.686 67.9419C112.187 67.9419 114.143 65.9851 114.143 63.05C114.143 60.1149 112.078 58.1582 109.686 58.1582C107.186 58.1582 105.229 60.1149 105.229 63.05C105.229 65.9851 107.186 67.9419 109.686 67.9419ZM97.5113 67.8331H98.9245V59.7888H101.86V58.4843H94.5762V59.7888H97.5113V67.8331Z" fill="#1C1C1B"/>
<path d="M160.667 44.6796V41.3097H163.385C164.146 41.3097 164.798 41.9619 164.798 42.9403C164.798 43.9187 164.146 44.5709 163.385 44.5709H160.667V44.6796ZM159.254 49.354H160.667V45.9841H163.493C165.015 45.9841 166.211 44.7883 166.211 42.9403C166.211 41.0923 165.015 39.8965 163.493 39.8965H159.254V49.354ZM150.883 49.354H152.297V41.3097H155.232V40.0052H147.948V41.3097H150.883V49.354ZM136.317 49.354H137.73V45.2231H142.513V49.354H143.926V39.8965H142.513V43.8099H137.73V39.8965H136.317V49.354ZM125.772 49.354H131.968V48.0495H127.185V45.3318H131.642V44.0274H127.185V41.3097H131.968V40.0052H125.772V49.354ZM120.337 51.202H121.75V47.9408H120.663V39.8965H119.25V47.9408H114.793V39.8965H113.379V49.354H120.228V51.202H120.337ZM95.334 49.354H97.3994L101.204 42.0706H101.422V49.354H102.835V39.8965H100.769L96.9646 47.1799H96.7472V39.8965H95.334V49.354Z" fill="#1C1C1B"/>
<path d="M147.297 20.4372C148.602 20.4372 149.471 19.6762 149.471 18.4805H147.95C147.841 18.9153 147.623 19.1327 147.189 19.1327C146.754 19.1327 146.536 18.9153 146.428 18.4805H144.906C145.123 19.6762 145.884 20.4372 147.297 20.4372ZM143.275 30.8731H145.775L148.711 25.2203H148.928V30.8731H151.102V21.4156H148.602L145.667 27.0683H145.449V21.4156H143.275V30.8731ZM132.513 30.8731H138.927V28.9164H134.579V27.0683H138.601V25.2203H134.579V23.3723H138.927V21.4156H132.513V30.8731ZM124.686 30.9818C127.078 30.9818 128.382 29.6773 128.382 28.1554C128.382 26.5248 126.969 26.09 126.969 26.09V25.9813C126.969 25.9813 128.274 25.5464 128.274 24.1332C128.274 22.6113 126.969 21.3069 124.686 21.3069C122.403 21.3069 121.099 22.6113 121.099 24.3507H123.273C123.273 23.6984 123.708 23.2636 124.686 23.2636C125.665 23.2636 126.208 23.6984 126.208 24.242C126.208 24.6768 125.773 25.2203 124.904 25.2203H123.925V26.8509H124.904C125.882 26.8509 126.317 27.2858 126.317 27.8293C126.317 28.3728 125.882 28.8077 124.795 28.8077C123.708 28.8077 123.164 28.2641 123.164 27.6119H120.99C120.881 29.6773 122.186 30.9818 124.686 30.9818ZM110.772 30.8731H112.076C113.598 30.8731 114.142 30.3296 114.576 29.3512L118.164 21.5243H115.772L113.924 25.7639H113.707L111.641 21.5243H109.25L112.728 28.3728L112.62 28.5902C112.511 28.8077 112.402 29.0251 111.967 29.0251H110.663V30.8731H110.772ZM95.2266 30.8731H97.4007V25.1116H97.6181L99.4661 30.8731H101.532L103.38 25.1116H103.597V30.8731H105.771V21.4156H102.51L100.662 27.2858H100.445L98.5965 21.4156H95.3353V30.8731H95.2266Z" fill="#1C1C1B"/>
<path d="M192.737 1.95673C194.041 1.95673 194.911 1.19578 194.911 0H193.498C193.389 0.434829 193.172 0.652243 192.737 0.652243C192.302 0.652243 192.085 0.434829 191.976 0H190.454C190.563 1.19578 191.324 1.95673 192.737 1.95673ZM188.715 12.3926H191.215L194.15 6.73985H194.368V12.3926H196.542V2.9351H193.933L190.998 8.58787H190.78V2.9351H188.606V12.3926H188.715ZM176.213 12.3926H178.714L181.649 6.73985H181.866V12.3926H184.04V2.9351H181.54L178.605 8.58787H178.388V2.9351H176.213V12.3926ZM165.125 12.3926H167.299V8.15304L170.343 12.3926H172.952L169.474 7.60951L172.735 2.9351H170.126L167.408 6.95726V2.9351H165.234V12.3926H165.125ZM156.755 12.5013C160.451 12.5013 161.103 8.80529 161.103 8.80529H158.929C158.929 8.80529 158.603 10.4359 156.755 10.4359C155.45 10.4359 154.363 9.34882 154.363 7.71821C154.363 6.0876 155.45 5.00053 156.755 5.00053C158.494 5.00053 158.929 6.52243 158.929 6.52243H161.103C161.103 6.52243 160.451 2.9351 156.755 2.9351C154.146 2.9351 152.189 5.00053 152.189 7.82692C152.189 10.6533 154.255 12.5013 156.755 12.5013ZM144.145 1.95673C145.449 1.95673 146.319 1.19578 146.319 0H144.797C144.688 0.434829 144.471 0.652243 144.036 0.652243C143.601 0.652243 143.384 0.434829 143.275 0H141.753C141.971 1.19578 142.732 1.95673 144.145 1.95673ZM140.123 12.3926H142.732L145.667 6.73985H145.884V12.3926H148.058V2.9351H145.558L142.623 8.58787H142.405V2.9351H140.231V12.3926H140.123ZM129.361 12.3926H135.774V10.4359H131.426V8.58787H135.448V6.73985H131.535V4.89183H135.883V2.9351H129.361V12.3926ZM119.903 7.5008V5.00053H121.969C122.621 5.00053 123.056 5.43536 123.056 6.19631C123.056 6.95726 122.621 7.39209 121.969 7.39209H119.903V7.5008ZM117.838 12.3926H120.012V9.56624H122.186C124.034 9.56624 125.23 8.26175 125.23 6.30502C125.23 4.23958 123.925 3.0438 122.186 3.0438H117.838V12.3926ZM108.163 6.73985V4.89183H110.228C110.772 4.89183 111.207 5.32665 111.207 5.87019C111.207 6.41373 110.772 6.84856 110.228 6.84856H108.163V6.73985ZM108.163 10.5446V8.58787H110.337C110.88 8.58787 111.315 9.0227 111.315 9.56624C111.315 10.1098 110.88 10.5446 110.337 10.5446H108.163ZM105.989 12.3926H110.663C112.294 12.3926 113.381 11.3056 113.381 9.78365C113.381 8.37046 112.185 7.71821 112.185 7.71821V7.60951C112.185 7.60951 113.163 6.95726 113.163 5.54407C113.163 4.02217 112.076 2.9351 110.446 2.9351H105.88V12.3926H105.989ZM95.2266 12.3926H101.64V10.4359H97.292V8.58787H101.314V6.73985H97.292V4.89183H101.64V2.9351H95.2266V12.3926Z" fill="#1C1C1B"/>
</svg>
